<svg width="103" height="242" viewBox="0 0 103 242" fill="none" xmlns="http://www.w3.org/2000/svg">
<g clip-path="url(#clip0_112_10)">
<path d="M102.224 165.089C85.5682 168.567 70.6015 177.114 59.1485 189.703C58.9738 189.897 58.9544 190.111 59.0126 190.286C58.6438 190.558 58.7408 191.276 59.3038 191.412C59.3426 191.607 59.4785 191.762 59.7308 191.82C59.7697 191.84 59.8085 191.84 59.8667 191.859C53.2666 195.745 47.4236 199.416 44.1042 206.002C44.2789 201.32 44.3954 196.638 44.473 191.956C48.2778 186.828 50.2966 180.475 52.7231 174.647C56.2755 166.119 60.7403 157.94 68.2527 152.287C68.6021 152.034 68.5633 151.607 68.3886 151.335C68.408 151.315 68.4274 151.315 68.4468 151.296C68.5439 151.218 68.6215 151.141 68.6992 151.082C68.7768 151.082 68.8545 151.082 68.9515 151.063C76.4834 148.654 84.7529 145.895 89.47 139.057C94.6918 131.461 91.78 122.195 91.3724 113.705C91.353 113.433 91.2171 113.278 91.023 113.181C90.7512 112.947 90.3047 112.909 90.0524 113.297C89.9359 113.472 89.8 113.627 89.6835 113.802C89.3729 113.433 88.7129 113.414 88.6159 113.997C88.5188 114.56 88.4023 115.143 88.3053 115.706C85.937 118.814 83.297 121.69 80.2881 124.234C77.2016 126.857 73.8628 128.975 71.4169 132.297C67.4568 137.678 66.1174 144.302 67.1074 150.83C67.1462 151.121 67.3403 151.257 67.5539 151.277C60.7791 156.386 56.6249 163.146 53.0531 170.742C50.1413 176.978 48.2584 183.894 44.4924 189.722C44.6671 171.5 43.8712 153.316 41.1536 135.23C40.9012 133.618 40.6489 131.986 40.3771 130.373C40.6683 130.121 40.7653 129.596 40.3189 129.344C40.28 129.324 40.2412 129.305 40.2024 129.266C40.0277 128.236 39.853 127.226 39.6783 126.197C41.2506 121.631 45.4436 117.513 49.2095 113.744C49.229 113.744 49.2484 113.744 49.2678 113.725C53.7714 111.84 58.042 109.528 62.0797 106.77C62.1185 106.75 62.1379 106.711 62.1573 106.692C62.2544 106.711 62.3515 106.731 62.4485 106.711C68.9515 105.507 75.1828 103.525 81.1811 100.747C81.6858 100.514 81.5111 99.7372 81.0258 99.6013C76.4446 98.2608 69.7474 96.5512 65.1468 98.7076C62.332 100.009 60.8956 102.768 61.7691 105.604C61.672 105.604 61.5556 105.624 61.4391 105.701C58.2943 107.858 54.9943 109.723 51.5584 111.335C52.2378 110.616 52.859 109.936 53.4219 109.237C57.3432 104.477 60.6044 99.3681 62.662 93.5401C70.3686 89.6547 69.961 80.2521 68.5633 72.7534C68.4468 72.0734 67.5733 72.2289 67.3792 72.7534C67.3015 72.7922 67.2433 72.8505 67.185 72.9282C63.9238 77.0856 61.2644 81.9811 59.4397 86.9544C58.3526 89.9073 58.2749 92.4133 61.0897 94.084C58.4108 101.136 53.8684 106.983 48.8601 112.559C48.6854 112.637 48.5884 112.773 48.5301 112.928C48.4136 113.045 48.3166 113.181 48.2001 113.297C47.1519 111.626 46.7442 109.82 46.9383 107.858C48.996 107.411 50.316 104.575 50.9372 102.865C52.1019 99.6207 51.9466 96.1433 50.6654 92.9573C50.3743 92.2191 49.1513 92.5299 49.4425 93.2875C50.1995 95.1914 50.5878 97.1535 50.4325 99.2127C50.3548 100.184 50.1607 101.175 49.8501 102.088C49.1901 104.128 49.0931 104.711 46.9966 104.924C44.5895 105.177 45.3854 104.594 45.793 102.923C46.0454 101.894 46.356 100.864 46.6666 99.8344C47.3848 97.5032 48.2584 95.2302 49.229 92.9961C49.5395 92.2579 48.4719 91.6168 48.1419 92.355C47.3072 94.2977 41.3865 106.673 45.6766 107.838C45.4436 110.033 45.9483 112.17 47.1713 114.035C47.2295 114.113 47.2878 114.171 47.346 114.23C47.2878 114.288 47.2489 114.346 47.1907 114.404C44.3954 117.435 41.1342 120.407 39.2706 124.04C36.8053 110.325 33.8352 96.6872 31.9135 82.8748C31.4476 79.5722 31.0982 76.2891 30.7682 72.9865C30.8458 72.9282 30.9234 72.8311 30.9623 72.7145C33.5635 65.682 38.1447 59.8151 44.2595 55.5606C53.3443 52.0444 63.8074 47.5179 70.2133 39.9415C75.5128 33.6666 77.3957 25.4102 76.0175 17.4258C76.1922 17.3092 76.3669 17.1732 76.5416 17.0567C77.221 16.6293 76.5999 15.5219 75.901 15.9688C75.8234 16.027 75.7457 16.0659 75.6681 16.1242C75.2798 15.7745 74.5034 16.1047 74.6392 16.7653C74.3092 16.9595 73.9987 17.1926 73.7075 17.4646C66.5833 22.399 60.3908 28.4602 54.5284 34.8322C49.5201 40.2911 42.6483 46.294 43.0365 54.3562C43.0365 54.5116 43.1142 54.6281 43.1918 54.7253C43.1724 54.7447 43.153 54.7836 43.1336 54.8224C37.5429 58.8243 33.2529 64.1667 30.5352 70.4999C29.6811 60.5339 29.4676 50.5097 29.8752 40.5243C32.0493 36.3087 35.1164 32.7924 38.9406 30.0532C40.8236 31.957 43.8907 29.6647 45.366 28.3436C48.1613 25.8764 49.889 22.4379 51.539 19.1548C51.6554 18.9411 51.6166 18.7274 51.5196 18.572C51.7331 18.4748 51.9466 18.3583 52.1796 18.2611C52.9172 17.9309 52.2766 16.843 51.539 17.1732C47.7148 18.8634 43.483 20.9032 40.4353 23.8366C39.2512 24.9828 37.8147 27.1198 38.3 28.907C34.9611 31.2771 32.1852 34.23 30.0305 37.688C30.2246 34.0746 30.4576 30.4806 30.8264 26.8672C36.1647 23.8561 32.1464 3.18591 31.6611 0.485578C31.4864 -0.349776 30.2829 -9.31933e-05 30.4187 0.796407C30.4187 0.83526 30.4187 0.854687 30.4382 0.893541C26.0899 3.86585 23.1587 8.27574 22.3434 13.521C21.6833 17.7949 22.3628 24.1863 26.711 26.4592C27.7981 27.0226 28.7299 27.2557 29.5064 27.2169C29.0987 31.5491 28.7881 35.8813 28.6134 40.2134C28.5746 40.33 28.5746 40.4271 28.594 40.5243C28.5746 41.0294 28.5746 41.515 28.5552 42.0201C28.5164 41.9813 28.4581 41.9619 28.4193 41.9424C27.1963 38.1153 23.7993 34.6768 21.1398 31.7433C18.0921 28.4019 14.695 25.5656 10.502 23.7783C9.90027 23.5258 9.37614 24.0503 9.64791 24.6331C13.0838 32.773 18.8298 41.0876 27.9534 43.0886C28.2058 43.1469 28.3999 43.0498 28.5358 42.9138C28.1281 55.6966 28.7299 68.4989 30.4187 81.2235C32.4182 96.3375 35.7376 111.219 38.3777 126.216C38.2029 126.779 38.0671 127.362 37.97 127.964C29.9917 122.991 22.9839 116.308 20.3633 107.081C20.441 107.022 20.5186 106.964 20.5769 106.847C25.061 98.6688 28.3805 90.1404 26.1093 80.7767C25.6434 78.8145 25.0416 76.8913 24.401 74.9875C24.4204 74.8903 24.401 74.7932 24.3234 74.7349C21.8192 67.5276 18.131 60.767 13.5497 54.6281C13.1809 54.1425 12.4821 54.3756 12.3656 54.803C8.15319 56.804 6.85259 61.0584 5.82375 65.2935C4.1155 72.326 2.19371 79.4751 1.02899 86.6241C-0.659853 96.8232 10.3079 103.933 18.9657 106.731C21.5475 116.794 29.157 124.04 37.7953 129.324C37.8535 129.674 38.1835 129.81 38.5135 129.752C38.6882 129.849 38.863 129.965 39.0571 130.063C39.1541 130.665 39.2706 131.267 39.3677 131.889C41.4447 144.71 42.5318 157.61 42.9783 170.529C41.8912 165.963 40.3383 161.631 36.8635 158.173C35.757 157.066 34.5923 156.017 33.3888 155.007C33.6994 154.929 33.9711 154.657 33.8741 154.249C33.447 152.617 33.0394 150.985 32.6123 149.353C38.2806 148.926 33.447 138.843 31.2923 135.172C31.3117 135.133 31.3311 135.094 31.3699 135.055C31.6999 134.511 31.1176 134.026 30.6517 134.142C30.1858 133.579 29.1764 134.181 29.6228 134.842C29.7005 134.958 29.7781 135.094 29.8558 135.211C27.9146 139.096 25.7987 148.343 31.3505 149.295C31.3505 149.334 31.3505 149.373 31.3505 149.431C31.7776 151.082 32.1852 152.714 32.6123 154.365C29.2928 151.646 25.6628 149.198 22.091 146.867C22.3628 146.536 22.1881 145.934 21.7222 145.837C21.8775 145.662 21.9163 145.429 21.7222 145.177C19.0239 141.66 18.0533 137.192 14.268 134.628C10.8515 132.297 6.58082 131.694 2.58195 131.17C2.46548 131.092 2.36842 130.995 2.25194 130.917C1.59194 130.432 0.970754 131.52 1.61135 132.005C6.2314 135.463 9.00732 140.067 13.0256 144.03C15.0833 146.07 17.5098 147.294 20.2663 147.178C25.2551 150.461 30.244 153.919 34.6894 157.882C35.6017 158.698 36.3782 159.572 37.077 160.466C35.4464 159.902 33.4664 159.708 32.3017 159.397C25.5463 157.532 18.8104 155.687 12.055 153.822C11.6473 153.705 11.2591 154.016 11.2591 154.424C11.1232 166.779 30.5546 163.749 38.5718 163.302C38.6688 163.574 38.9406 163.729 39.193 163.729C40.8818 167.032 41.7553 170.703 42.5124 174.569C42.5706 174.9 42.8036 175.016 43.0559 175.016C43.1918 180.533 43.2112 186.051 43.1336 191.568C43.0948 191.626 43.0559 191.684 43.0171 191.743C42.7842 192.034 42.9006 192.306 43.1336 192.481C43.0559 198.134 42.8812 203.787 42.6483 209.46C42.6095 209.596 42.5512 209.732 42.5124 209.868C42.4542 210.082 42.493 210.256 42.6095 210.392C42.4736 213.462 42.3377 216.551 42.1824 219.62C39.8918 214.297 33.6023 209.771 29.2346 206.837C29.2734 206.701 29.254 206.546 29.1375 206.391C29.0211 206.216 28.8658 206.08 28.7493 205.905C28.9628 189.178 17.1215 179.776 3.78549 172.141C3.76608 171.966 3.76608 171.791 3.76608 171.636C3.76608 171.597 3.74667 171.578 3.74667 171.558C3.76608 171.481 3.8049 171.403 3.82432 171.325C4.09608 170.567 2.89254 170.237 2.60136 170.995C-0.698677 180.048 -1.53339 190.461 4.05726 198.853C9.45379 206.954 18.888 208.994 28.0699 208.217C28.3028 208.197 28.4581 208.061 28.5552 207.906C33.8547 211.48 42.5901 217.755 41.7553 224.671C41.7359 224.865 41.7942 225.021 41.8912 225.118C41.5806 230.538 41.2506 235.978 40.9012 241.398C40.843 242.214 42.1048 242.214 42.163 241.398C42.8424 230.849 43.483 220.261 43.9295 209.674C46.7442 201.068 53.4996 197.046 60.9926 192.656C61.1673 192.559 61.2644 192.403 61.2838 192.248C66.1756 193.569 71.5527 195.473 76.5222 194.909C81.2976 194.385 86.8494 192.345 91.023 189.955C99.5254 185.079 101.428 175.521 102.631 166.507C102.67 166.43 102.67 166.352 102.67 166.255C103.291 165.963 102.961 164.934 102.224 165.089ZM69.4562 138.746C73.0475 139.251 76.8716 139.465 79.7058 136.94C78.7546 138.397 77.7452 139.795 76.6581 141.155C76.6193 141.097 76.5416 141.058 76.4446 141.078C73.8045 141.35 71.1645 141.602 68.5245 141.874C68.7574 140.806 69.068 139.757 69.4562 138.746ZM71.7663 134.2C74.8334 135.424 78.0558 135.56 81.1811 134.57C80.8511 135.133 80.5211 135.677 80.1717 136.221C80.0746 136.065 79.8999 135.988 79.7446 136.143C77.0463 138.941 73.2222 138.688 69.6698 138.183C70.2327 136.804 70.9316 135.483 71.7663 134.2ZM76.231 141.68C75.4157 142.69 74.581 143.661 73.7075 144.613C71.9022 145.41 69.9998 145.74 68.0198 145.604C68.078 144.536 68.1945 143.486 68.3886 142.476C71.0092 142.204 73.6298 141.952 76.231 141.68ZM68.1945 149.839C68.0392 148.596 67.9809 147.391 68.0003 146.187C69.631 146.303 71.2033 146.109 72.7369 145.623C71.3198 147.1 69.8057 148.499 68.1945 149.839ZM90.1688 115.162C90.7706 122.467 93.0224 130.626 89.1012 137.27C85.2188 143.836 77.9781 146.77 71.0286 149.081C80.5987 140.359 87.0241 128.877 89.47 116.114C89.7029 115.784 89.9359 115.473 90.1688 115.162ZM87.6841 118.329C86.9659 121.34 86.0341 124.293 84.8694 127.11C83.5494 126.274 82.8505 124.856 83.0058 123.283C83.0058 123.244 82.9864 123.224 82.967 123.185C84.6364 121.651 86.2282 120.058 87.6841 118.329ZM82.4623 123.71C82.4429 125.322 83.2388 126.818 84.6558 127.673C84.287 128.528 83.9182 129.363 83.5105 130.199C81.9576 129.266 80.5987 128.1 79.5117 126.663C79.434 126.566 79.3369 126.546 79.2399 126.566C80.327 125.614 81.414 124.662 82.4623 123.71ZM78.9681 126.76C78.9681 126.818 78.9681 126.877 79.0069 126.935C80.1911 128.47 81.6081 129.732 83.2582 130.723C83.0058 131.228 82.7729 131.714 82.5205 132.199C82.4817 132.141 82.404 132.083 82.307 132.083C79.8028 132.122 77.5316 131.267 75.6681 129.616C76.2504 129.072 76.8522 128.528 77.4928 128.003C77.9781 127.615 78.4634 127.187 78.9681 126.76ZM75.2022 130.024C77.1628 131.772 79.6087 132.705 82.2487 132.666C82.0352 133.035 81.8411 133.423 81.6276 133.792C78.4828 134.958 75.2022 134.939 72.0963 133.715C72.9892 132.413 74.0375 131.189 75.2022 130.024ZM71.8827 99.1739C74.2704 99.3487 76.5999 99.7567 78.9099 100.339C73.7657 102.593 68.4662 104.244 62.9532 105.313C60.7597 99.6984 68.6215 98.9407 71.8827 99.1739ZM67.5733 74.4629C68.6798 81.2235 68.8545 89.6547 61.4585 92.763C57.4402 89.3439 64.778 78.2123 67.5733 74.4629ZM64.5062 43.4771C63.9238 41.2236 64.0791 39.1061 64.6227 37.0663C64.9333 38.7953 65.6127 40.466 66.5639 41.8064C65.9039 42.4087 65.2244 42.9915 64.5062 43.5354C64.5062 43.516 64.5062 43.4966 64.5062 43.4771ZM67.2239 41.2431C67.1462 41.3208 67.0686 41.3791 66.9909 41.4373C65.8844 39.8832 65.1662 37.7462 65.0109 35.7064C65.4962 34.3271 66.1368 32.9867 66.8356 31.6656C66.9715 34.3077 68.1362 36.7555 69.1068 39.2227C68.5051 39.922 67.9033 40.602 67.2239 41.2431ZM69.5339 38.7564C68.4662 36.1144 67.2433 33.4529 67.4374 30.5583C67.7868 29.9172 68.1362 29.2761 68.4856 28.6545C68.5633 28.4991 68.6604 28.3436 68.738 28.1688C68.7768 31.18 69.5145 34.0357 71.0092 36.6778C70.5433 37.3771 70.0774 38.0765 69.5339 38.7564ZM73.2222 32.4816C71.7857 29.6647 71.0286 26.6535 70.9704 23.4869C71.3392 22.7487 71.7274 22.0105 72.1545 21.3111C72.368 24.0697 73.0863 26.7312 74.3092 29.2567C74.0181 30.3446 73.6492 31.4325 73.2222 32.4816ZM70.4463 24.536C70.6598 27.586 71.4557 30.5 72.9116 33.2198C72.4651 34.2106 71.9604 35.1819 71.378 36.1144C69.8639 33.3558 69.1457 30.3835 69.2815 27.2169C69.2815 27.178 69.2621 27.1392 69.2427 27.1198C69.631 26.3038 70.0192 25.4296 70.4463 24.536ZM74.5228 28.2854C73.4163 25.7987 72.7951 23.1955 72.6786 20.4758C73.0863 19.8736 73.5328 19.3102 73.9986 18.8245C74.2704 18.6302 74.5616 18.436 74.8334 18.2417C75.3769 21.622 75.2604 25.0217 74.5228 28.2854ZM57.6926 33.2392C61.7691 28.907 66.0591 24.8274 70.718 21.1946C69.2233 23.7589 68.078 26.7312 66.9133 28.8293C66.1562 30.2086 65.4186 31.5879 64.778 32.9672C64.6615 32.9478 64.5256 33.0061 64.5062 33.1615C64.4674 33.3363 64.4674 33.5306 64.448 33.7055C63.0891 36.8915 62.3126 40.1746 63.2638 43.8074C63.3221 44.0017 63.4385 44.1377 63.5744 44.1959C58.2749 48.1396 51.9078 51.1119 45.8513 53.5597C45.6766 53.346 45.3854 53.2488 45.0942 53.4431C44.803 53.618 44.5507 53.8316 44.2595 54.0065C44.1236 45.7112 52.4319 38.8341 57.6926 33.2392ZM39.7171 27.2169C39.7753 26.6729 39.9888 26.1873 40.3771 25.7987C40.7265 25.2742 41.1342 24.8468 41.6195 24.4389C42.6677 23.5258 43.8324 22.7487 45.0166 22.0105C46.6472 20.9809 48.336 20.0872 50.0637 19.2519C49.2484 20.8837 48.4136 22.5156 47.3848 24.0115C46.686 25.0411 45.9289 26.0319 45.036 26.8866C44.5313 27.3723 43.9877 27.858 43.4054 28.2659C42.3183 29.0236 42.2018 29.1013 40.7847 28.5768C40.6294 28.5768 40.513 28.5573 40.3771 28.5379C40.3188 28.1494 39.9306 27.8191 39.523 28.0522C39.4453 27.8385 39.4841 27.5666 39.7171 27.2169ZM26.0122 24.3611C22.8869 21.8745 23.0228 15.8133 23.8381 12.3554C24.8281 8.19803 27.2158 4.77891 30.6323 2.29227C31.2923 6.23592 31.8358 10.199 32.1464 14.2009C32.3405 16.5127 33.6605 30.4223 26.0122 24.3611ZM11.4726 25.6433C14.4815 27.1975 17.0827 29.2761 19.451 31.7433C22.0522 34.4631 25.4493 37.8822 26.9052 41.4762C19.4898 39.2227 14.6368 32.501 11.4726 25.6433ZM25.2552 91.714C21.5086 91.5197 18.2668 89.1108 17.0245 85.5557C16.9856 85.4779 16.9468 85.4585 16.908 85.4197C16.7527 84.4289 16.5974 83.4187 16.4421 82.4279C18.0339 84.0792 19.7616 85.6139 21.7028 86.8572C22.9063 87.6343 24.304 88.4114 25.6628 87.848C25.624 89.1302 25.5075 90.4124 25.2552 91.714ZM25.1387 92.2773C25.0999 92.4327 25.0804 92.5687 25.061 92.7242C24.8669 93.5012 24.6146 94.2783 24.3816 95.0359C21.761 94.628 19.5092 93.1321 18.1115 90.8592C18.0145 90.7038 17.8592 90.7038 17.7233 90.762C17.5292 89.6159 17.3739 88.4502 17.1992 87.3041C18.8104 90.1792 21.761 92.0636 25.1387 92.2773ZM24.2069 95.5993C23.8575 96.6484 23.4887 97.678 23.0616 98.7076C21.3533 98.6882 19.8004 97.8917 18.8492 96.4347C18.791 96.357 18.7133 96.3181 18.6357 96.2987C18.3639 94.6863 18.0727 93.0933 17.8204 91.4808C19.3151 93.7149 21.5863 95.1525 24.2069 95.5993ZM22.8481 99.271C22.0522 101.175 21.1592 103.02 20.1886 104.827C19.7033 102.321 19.2568 99.8149 18.8298 97.2895C19.8392 98.4939 21.2563 99.1933 22.8481 99.271ZM25.6628 87.1875C22.9063 88.6639 18.0533 83.3604 16.4615 81.6509C16.4033 81.5926 16.3645 81.5732 16.3062 81.5732C16.1315 80.3104 15.9762 79.0671 15.8209 77.8043C18.5192 79.8442 21.5863 81.1458 24.964 81.612C24.964 81.612 24.964 81.612 24.9834 81.612C25.3716 83.4576 25.624 85.3031 25.6628 87.1875ZM22.9451 74.6961C20.1886 74.7738 17.5486 74.1132 15.1803 72.598C15.025 71.3741 14.8503 70.1696 14.7144 68.9457C16.4809 70.8884 19.0433 71.8015 21.6639 71.3935C22.1104 72.4814 22.5569 73.5887 22.9451 74.6961ZM23.1392 75.2789C23.4304 76.1531 23.7216 77.0078 23.9934 77.9015C24.304 78.9311 24.5757 79.9607 24.8281 80.9903C21.4698 80.4852 18.4027 79.1642 15.7433 77.0467C15.588 75.8034 15.4327 74.5601 15.2774 73.3168C17.6845 74.7349 20.3439 75.3954 23.1392 75.2789ZM18.9074 65.5072C17.2962 65.6043 15.8015 64.9826 14.7921 63.681C14.5591 63.3896 14.1515 63.7976 14.3844 64.089C15.5297 65.5655 17.3545 66.3231 19.218 66.09C20.0139 67.6441 20.7516 69.2371 21.431 70.8495C18.8298 71.2187 16.2674 70.1696 14.695 68.0521C14.6756 68.0132 14.6368 68.0132 14.598 67.9938C14.1903 64.2639 13.8215 60.5145 13.5109 56.7651C15.5103 59.5626 17.3156 62.4766 18.9074 65.5072ZM2.27136 91.6945C1.39782 88.6445 2.60136 85.1283 3.28078 82.156C4.32903 77.5129 5.39669 72.8699 6.44493 68.2269C7.41553 63.9336 8.23084 58.8243 12.2103 56.3571C13.608 72.7534 15.8792 89.0331 18.9851 105.196C18.9268 105.235 18.888 105.274 18.8492 105.313C14.6562 103.895 10.7932 101.796 7.49318 98.7465C5.43551 96.8815 3.04784 94.4337 2.27136 91.6945ZM29.7005 146.439C29.3899 145.837 29.2152 145.215 29.157 144.555C28.9823 143.603 28.9823 142.651 29.0405 141.699C29.1764 139.795 29.7199 138.066 30.5546 136.396C31.2923 137.639 31.9717 138.902 32.5152 140.262C32.8452 141.116 33.1364 141.971 33.3888 142.845C33.5441 143.428 33.6994 144.011 33.8158 144.613C34.3982 145.876 33.9323 146.614 32.4182 146.847C31.2729 148.188 30.3605 148.052 29.7005 146.439ZM9.86144 138.144C8.23084 136.143 6.44493 134.356 4.50374 132.705C7.70671 133.171 10.9873 133.89 13.6468 135.716C17.1798 138.164 18.0921 142.496 20.5963 145.759C20.6351 145.818 20.6739 145.837 20.7322 145.876C20.7127 145.876 20.6739 145.876 20.6545 145.895C20.2469 145.623 19.8392 145.371 19.451 145.099C18.9268 144.749 18.4221 145.332 18.558 145.818C14.7144 145.06 12.2491 141.097 9.86144 138.144ZM13.9768 157.415C12.9674 155.376 13.4332 154.929 15.4133 156.056C16.6362 156.386 17.8592 156.736 19.1015 157.066C20.9457 157.571 22.7898 158.076 24.6146 158.581C26.2257 159.028 34.4564 160.582 37.4265 162.136C30.574 162.68 14.4427 164.429 13.9768 157.415ZM15.3939 196.172C14.7921 195.745 14.1709 195.278 13.5303 194.812C13.5497 194.812 13.5497 194.812 13.5691 194.812C16.5198 192.5 18.6745 189.489 20.0333 186.031C21.2563 187.43 22.3628 188.887 23.3334 190.441C22.7898 193.588 21.0622 196.308 18.4027 198.115C17.3933 197.493 16.3839 196.871 15.3939 196.172ZM23.7798 191.218C24.5175 192.5 25.1775 193.841 25.721 195.259C25.721 197.396 24.7504 199.358 23.0034 200.601C22.9257 200.66 22.9063 200.718 22.8869 200.796C21.6057 199.98 20.2857 199.203 18.9463 198.426C21.4116 196.677 23.1004 194.152 23.7798 191.218ZM26.1675 196.677C26.9246 199.067 27.3711 201.631 27.4681 204.428C26.2257 203.146 24.8087 202.078 23.314 201.106C24.8281 199.999 25.8181 198.445 26.1675 196.677ZM19.6063 185.546C18.2862 189.042 16.1315 192.054 13.1615 194.385C13.1227 194.404 13.1227 194.443 13.1227 194.482C11.9385 193.569 10.7738 192.578 9.66732 191.49C13.2197 189.606 15.6268 186.245 16.2868 182.282C17.4515 183.331 18.558 184.419 19.6063 185.546ZM9.97792 177.93C8.8132 179.892 6.77494 181.058 4.48432 181.058C4.38726 181.058 4.32903 181.097 4.27079 181.155C4.13491 180.048 4.03785 178.94 3.99902 177.794C5.24139 177.483 6.27023 176.765 6.94965 175.618C6.96906 175.58 6.94965 175.56 6.96906 175.521C9.02673 176.784 11.0068 178.124 12.8897 179.543C11.4144 182.768 8.94908 184.885 5.94022 186.731C5.62963 186.148 5.33845 185.546 5.12492 184.924C4.75609 183.875 4.50374 182.748 4.32903 181.563C4.36785 181.602 4.40668 181.621 4.48432 181.621C6.96906 181.621 9.22085 180.339 10.4632 178.183C10.6767 177.891 10.172 177.6 9.97792 177.93ZM13.3556 179.912C14.1903 180.553 14.9862 181.194 15.7627 181.854C15.2192 185.856 12.7927 189.217 9.22085 191.063C8.05613 189.878 7.04671 188.596 6.25081 187.236C9.33732 185.332 11.8221 183.156 13.3556 179.912ZM6.54199 175.269C6.50317 175.288 6.46435 175.288 6.44493 175.327C5.88199 176.279 5.00845 176.92 3.97961 177.211C3.94079 176.026 3.90196 174.841 3.86314 173.676C4.7755 174.2 5.66845 174.725 6.54199 175.269ZM4.36785 196.949C0.407806 190.111 0.64075 182.185 2.69842 174.822C3.08666 181.252 3.55255 186.944 8.48319 191.976C11.1426 194.696 14.2097 197.027 17.4515 199.028C21.0622 201.242 24.8281 203.03 27.5264 206.371C27.5264 206.41 27.5264 206.429 27.5458 206.468C27.4487 206.624 27.4293 206.818 27.4875 207.012C18.3639 207.653 9.25967 205.4 4.36785 196.949ZM87.0047 178.902C88.4412 176.357 89.0818 173.501 88.8488 170.509C90.5765 169.81 92.3236 169.169 94.1095 168.586C94.323 170.159 94.2842 171.714 93.9736 173.248C91.7218 175.23 89.4118 177.114 87.0047 178.902ZM65.9815 189.839C65.1856 188.382 65.0497 186.711 65.7097 185.176C65.7291 185.118 65.7291 185.04 65.7097 184.982C66.7968 184.011 67.9033 183.059 69.0292 182.146C68.6992 184.458 68.6798 186.769 69.0098 189.101C68.0198 189.392 67.0103 189.645 65.9815 189.839ZM69.5727 188.887C69.2427 186.439 69.3009 184.03 69.7086 181.602C71.3004 180.339 72.9504 179.154 74.6392 178.027C73.3581 181 72.7757 184.147 72.3098 187.352C72.271 187.605 72.5039 187.721 72.6786 187.702C71.6498 188.149 70.621 188.557 69.5727 188.887ZM72.8533 187.508C73.3581 184.05 73.9598 180.631 75.4934 177.464C76.561 176.765 77.6481 176.104 78.7352 175.463C76.7357 178.105 77.0075 182.398 76.7357 185.487C76.7357 185.565 76.7552 185.604 76.794 185.643C75.474 186.381 74.1345 187.061 72.7563 187.682C72.8145 187.624 72.8533 187.585 72.8533 187.508ZM80.5599 174.531C80.6376 174.492 80.657 174.433 80.6764 174.356C81.8217 173.734 82.9864 173.132 84.1511 172.568C82.2487 175.988 82.2487 180.631 79.1622 183.175C79.0458 183.078 78.8322 183.039 78.7352 183.234C78.6187 183.409 78.5216 183.603 78.4052 183.778C78.3663 183.817 78.3275 183.855 78.3275 183.894C78.0752 184.302 77.8228 184.71 77.5899 185.118C77.5705 185.138 77.5899 185.176 77.5705 185.196C77.4928 185.235 77.3958 185.293 77.3181 185.332C77.6287 181.835 77.1822 176.551 80.5599 174.531ZM78.8905 184.089C83.0252 181.369 82.4429 175.832 85.1217 172.102C86.1506 171.616 87.1988 171.17 88.2665 170.723C88.48 173.987 87.6453 177.095 85.7623 179.795C84.947 180.378 84.1317 181 83.297 181.563C81.744 182.612 80.1911 183.622 78.5993 184.574C78.6964 184.419 78.7934 184.263 78.8905 184.089ZM94.653 168.411C96.6524 167.77 98.6713 167.226 100.729 166.74C98.7683 168.78 96.7495 170.742 94.653 172.627C94.8471 171.228 94.8471 169.829 94.653 168.411ZM64.9915 185.623C64.5838 187.08 64.7003 188.557 65.3797 189.917C63.7685 190.189 62.0991 190.286 60.3714 190.227C61.8467 188.634 63.3997 187.1 64.9915 185.623ZM89.0624 189.547C85.0635 191.548 79.4534 193.685 74.9498 193.763C71.1645 193.821 67.0297 192.539 63.1668 191.451C70.2716 190.966 76.4057 187.547 82.5205 183.583C86.5 181 90.2465 178.124 93.8183 175.055C93.9542 175.094 94.1095 175.036 94.1677 174.861C94.1871 174.803 94.1871 174.764 94.2065 174.705C96.6136 172.607 98.9431 170.393 101.156 168.081C99.8942 176.745 97.623 185.274 89.0624 189.547Z" fill="#333333"/>
</g>
<defs>
<clipPath id="clip0_112_10">
<rect width="103" height="242" fill="white"/>
</clipPath>
</defs>
</svg>
