<svg width="572" height="62" viewBox="0 0 572 62" fill="none" xmlns="http://www.w3.org/2000/svg">
<g clip-path="url(#clip0_109_2)">
<path d="M269.669 48.0656C261.754 48.9836 253.935 49.0164 246.213 48.4918C246.02 48.3935 245.794 48.3935 245.569 48.459C243.06 48.2623 240.55 48 238.04 47.7049C238.201 47.3443 238.169 46.9181 237.783 46.623C234.308 43.8033 233.567 39.3115 231.412 35.5738C230.189 33.4426 227.744 30.3935 224.976 31.5738C221.888 32.8853 222.788 37.7377 223.786 40.164C224.462 41.8033 225.491 43.3115 226.778 44.5246C227.647 45.3115 228.645 45.8689 229.642 46.4918C218.573 44.5902 207.666 41.7705 196.758 38.6558C196.951 38.2951 196.983 37.8361 196.597 37.4426C190.226 30.7541 191.159 22.3279 182.568 17.3115C171.757 11.0164 160.206 5.8033 149.073 0.131171C148.365 -0.229485 147.142 0.393466 147.528 1.34429C152.966 14.5574 162.233 25.1804 174.041 32.0984C160.656 28.2623 147.206 24.7541 133.499 22.9181C115.416 20.459 97.1079 21.2131 79.4109 24.7869C79.3466 24.7541 79.3144 24.6885 79.2501 24.6558C57.692 14.4918 34.6859 9.11478 10.9398 8.59019C9.97453 8.5574 9.62059 9.73773 10.1998 10.3935C17.2464 18.459 26.7062 22.0656 37.067 23.4426C48.5861 24.9836 60.7165 25.7049 72.5252 26.2623C55.9866 30.3607 40.0594 36.9836 25.3548 45.9345C25.1617 45.5082 24.7434 45.1476 24.1643 45.2459C21.4615 45.7049 5.92032 48.8853 1.31911 54.0328C1.15823 54.1312 0.965175 54.1967 0.804294 54.2951C0.386002 54.5246 0.225121 55.0492 0.32165 55.4754C-0.2897 56.8525 -0.096642 58.3607 1.35129 59.9672C3.92539 62.8853 8.71966 61.1148 11.6155 59.8689C13.7713 58.9508 15.7019 57.7049 17.5681 56.3607C18.4691 55.9345 19.3378 55.4099 20.1422 54.7213C20.3675 54.5246 20.4318 54.2623 20.4318 54C22.105 52.459 23.6495 50.7869 25.033 48.9181C25.0974 48.8525 25.0652 48.7541 25.0974 48.6558C45.9476 35.7049 69.2432 27.6066 93.2467 24.7869C92.2171 25.2787 91.2196 25.8689 90.2544 26.5246C88.1951 27.9345 83.6904 30.9181 85.3636 34.0656C88.1307 39.3443 98.0088 31.4426 103.254 26.8525C104.895 25.8689 106.6 24.9508 108.434 24.3279C108.788 24.1967 108.981 23.9672 109.077 23.7049C118.441 23.5082 127.836 24.164 137.167 25.6066C116.864 31.4426 96.2391 38.7869 84.173 57.6066C83.7547 58.2295 84.3017 59.2787 85.074 59.2131C96.2713 58.0656 107.823 56.8525 118.151 51.9672C129.413 46.623 136.106 36.9181 142.412 26.459C151.647 28.164 160.785 30.5246 169.891 33.082C163.488 33.6394 153.867 35.6394 156.505 40.9836C157.825 43.6722 162.072 42.8525 164.388 42.3279C169.247 41.2131 173.462 38.2295 177.388 35.2131C194.216 40.0984 210.98 45.3115 228.065 48.3935C214.358 48.3279 201.037 51.5082 188.489 57.9345C187.684 58.3607 187.877 59.6722 188.746 59.8689C208.438 64.6558 228.645 61.4099 245.923 50.6558C253.742 51.2131 261.625 51.1476 269.637 50.2295C270.989 50.0656 270.989 47.9345 269.669 48.0656ZM92.0884 27.9672C92.6032 27.6394 93.0859 27.2459 93.6329 26.9836C94.8234 26.3607 96.0783 25.8689 97.3331 25.4754C95.5313 26.1967 93.7937 27.0492 92.0884 27.9672ZM13.6426 10.8525C34.1067 11.6066 53.9917 16.0656 72.847 24.0984C63.7411 23.4754 54.6674 22.5246 45.5293 22.0328C33.8172 21.4754 22.2659 19.1804 13.6426 10.8525ZM13.707 53.7049C13.4817 53.7377 13.2887 53.8033 13.0956 53.8689C13.0635 53.8033 13.0635 53.7377 13.0313 53.6722C13.6748 53.3771 14.3505 53.082 15.0262 52.7869C14.6079 53.082 14.1896 53.3443 13.7713 53.6722C13.7392 53.6722 13.7392 53.6722 13.707 53.7049ZM17.8899 48.8197C19.4022 48.4263 20.9145 48.0984 22.4268 47.8033C20.9145 48.2623 19.4022 48.7869 17.8899 49.3443C17.9221 49.1804 17.9221 48.9836 17.8899 48.8197ZM4.66545 57.6722C4.63327 57.7377 4.60109 57.8033 4.56892 57.8689C4.56892 57.9345 4.56892 57.9672 4.56892 58.0328C4.50457 58.0656 4.44021 58.0984 4.37586 58.1312C4.15063 58.2623 3.98975 58.4263 3.92539 58.5902C3.89322 58.3935 3.92539 58.0984 3.92539 57.8689C4.15063 57.8361 4.40804 57.7705 4.66545 57.6722ZM18.5012 52.9836H18.4691C18.5334 52.9508 18.5978 52.8853 18.6621 52.8525C18.5978 52.8853 18.5334 52.9508 18.5012 52.9836ZM89.5143 32.7541C89.9004 32.5902 90.2544 32.3935 90.6405 32.2295C90.737 32.4918 90.8979 32.7213 91.1231 32.8525C90.5439 33.082 90.0613 33.2131 89.7074 33.082C89.6752 33.0164 89.6108 32.8853 89.5143 32.7541ZM225.491 38.6886C225.202 37.8033 224.719 36.4918 225.041 35.6722C225.041 35.6394 225.073 35.6394 225.073 35.6066C225.105 36.2295 225.234 36.8525 225.395 37.4099C225.652 38.164 226.006 38.8197 226.424 39.4754C226.263 39.7377 226.231 40.0984 226.457 40.459C226.489 40.5246 226.585 40.5902 226.617 40.6558C226.65 40.6885 226.65 40.6886 226.682 40.7213C227.615 42.0328 228.805 43.2131 230.157 44.3279C229.739 44.0656 229.32 43.7705 228.934 43.4754C227.325 42.2623 226.103 40.623 225.491 38.6886ZM188.038 35.8689C171.499 30.8525 158.178 19.1476 150.81 3.34429C160.431 8.22953 170.084 12.9836 179.608 18.0656C185.528 21.2131 188.038 25.0164 190.548 31.1476C191.61 33.7049 192.639 35.8689 194.312 37.9017C192.382 37.3443 190.483 36.7869 188.553 36.2295C188.424 36.0984 188.295 35.9672 188.038 35.8689ZM161.911 37.0164C161.557 37.082 161.235 37.1804 160.881 37.2459C161.525 36.8197 162.426 36.4918 163.359 36.2295C162.844 36.459 162.361 36.7541 161.911 37.0164ZM171.178 36.8853C171.403 36.8197 171.66 36.7541 171.886 36.6885C171.66 36.8525 171.467 36.9836 171.242 37.1476C171.242 37.0492 171.21 36.9836 171.178 36.8853ZM118.216 49.6066C113.904 51.7705 109.238 53.2131 104.573 54.2951C100.229 55.2787 93.0537 57.7377 88.8064 56.7213C85.1705 55.8361 92.9572 49.7705 94.7912 48.0984C98.8132 44.3607 103.382 41.2787 108.177 38.6558C118.022 33.2787 128.866 30.164 139.581 27.1476C133.95 36.2295 127.933 44.6886 118.216 49.6066ZM192.318 58.459C207.344 51.4099 223.593 48.9181 240.067 51.3443C240.196 51.3771 240.325 51.3443 240.453 51.3115C225.62 59.2459 208.856 61.7377 192.318 58.459ZM240.968 51.0492C241.193 50.8197 241.354 50.5246 241.354 50.2295C241.676 50.2623 241.998 50.2951 242.319 50.3279C241.901 50.5574 241.419 50.8197 240.968 51.0492Z" fill="#333333"/>
<path d="M571.678 55.5082C571.775 55.0492 571.614 54.5246 571.196 54.2951C571.035 54.1968 570.842 54.1312 570.681 54.0328C566.048 48.8853 550.539 45.705 547.836 45.2459C547.257 45.1476 546.838 45.5082 546.645 45.9345C531.941 36.9836 516.013 30.3607 499.475 26.2623C511.251 25.705 523.414 24.9509 534.933 23.4427C545.294 22.0656 554.754 18.4591 561.8 10.3935C562.379 9.73774 562.026 8.55741 561.06 8.5902C537.314 9.082 514.34 14.4918 492.75 24.5902C492.686 24.623 492.621 24.6886 492.589 24.7213C474.892 21.1148 456.584 20.3935 438.501 22.8525C424.794 24.6886 411.344 28.1968 397.959 32.0328C409.767 25.1148 419.034 14.4918 424.472 1.31151C424.858 0.36069 423.667 -0.26226 422.927 0.0983953C411.794 5.77053 400.243 10.9836 389.432 17.2787C380.873 22.2623 381.742 30.7213 375.403 37.4099C375.049 37.8033 375.049 38.2623 375.242 38.623C364.334 41.7377 353.427 44.5574 342.358 46.4591C343.195 45.9345 344.063 45.4427 344.836 44.7869C346.316 43.541 347.474 41.9672 348.214 40.1312C349.179 37.6722 350.113 32.8525 347.024 31.541C344.256 30.3607 341.811 33.4099 340.588 35.541C338.433 39.2787 337.725 43.7705 334.217 46.5902C333.831 46.8853 333.831 47.3115 333.96 47.6722C331.45 47.9672 328.941 48.2295 326.431 48.4263C326.206 48.3607 325.98 48.3607 325.787 48.459C318.065 48.9836 310.246 48.9836 302.331 48.0328C301.012 47.8689 301.012 50 302.331 50.164C310.343 51.1148 318.226 51.1476 326.045 50.5902C343.323 61.3115 363.53 64.5902 383.222 59.8033C384.058 59.6066 384.284 58.2623 383.479 57.8689C370.963 51.4754 357.642 48.2951 343.935 48.3279C360.988 45.2787 377.752 40.0656 394.58 35.1804C398.313 38.0656 402.335 40.9181 406.936 42.1312C409.285 42.7541 414.015 43.7705 415.43 40.9181C418.037 35.5738 408.512 33.5738 402.109 33.0164C411.215 30.459 420.321 28.1312 429.556 26.3935C435.862 36.8525 442.587 46.5574 453.817 51.9017C464.145 56.8197 475.697 58.0328 486.894 59.1476C487.666 59.2132 488.213 58.1968 487.795 57.541C475.729 38.6886 455.072 31.3771 434.768 25.541C444.132 24.0984 453.527 23.4427 462.89 23.6394C462.987 23.9345 463.18 24.164 463.534 24.2951C465.368 24.9181 467.073 25.8033 468.714 26.8197C473.959 31.4427 483.773 39.2787 486.636 34.0328C488.245 31.082 484.191 28.2295 482.293 26.8853C481.102 26.0328 479.847 25.3443 478.592 24.7213C502.66 27.5082 525.988 35.6394 546.903 48.5902C546.935 48.6886 546.903 48.7541 546.967 48.8525C548.351 50.7213 549.895 52.3935 551.568 53.9345C551.568 54.1968 551.6 54.4591 551.858 54.6558C552.694 55.3443 553.563 55.8689 554.432 56.2951C556.266 57.6722 558.229 58.8853 560.384 59.8033C563.28 61.0492 568.075 62.8197 570.649 59.9017C572.064 58.3935 572.29 56.8853 571.678 55.5082ZM400.79 36.9509C400.726 36.9181 400.661 36.8525 400.597 36.8197C400.694 36.8525 400.758 36.8525 400.854 36.8853C400.822 36.9181 400.79 36.9509 400.79 36.9509ZM410.089 37.0164C409.639 36.7869 409.22 36.5246 408.77 36.2951C409.703 36.5574 410.668 36.9181 411.215 37.2459C410.861 37.2131 410.475 37.1148 410.089 37.0164ZM381.452 31.1804C384.123 24.8197 386.182 21.4099 392.392 18.0984C401.884 13.0164 411.569 8.22954 421.19 3.37708C413.822 19.1804 400.501 30.8853 383.962 35.9017C383.705 35.9672 383.544 36.1312 383.447 36.2951C381.517 36.8525 379.618 37.4099 377.688 37.9672C379.361 35.9017 380.39 33.705 381.452 31.1804ZM346.637 38.2295C346.155 40.0656 345.125 41.7377 343.709 42.9836C343.034 43.6066 342.294 44.0984 341.554 44.5574C343.002 43.3771 344.321 42.1312 345.318 40.6886C345.35 40.6558 345.35 40.6558 345.383 40.623C345.447 40.5574 345.511 40.4918 345.543 40.4263C345.769 40.0656 345.737 39.7377 345.608 39.4427C346.026 38.8197 346.38 38.1312 346.637 37.3771C346.863 36.6886 346.991 35.8689 346.959 35.1148L346.991 35.1476C347.345 35.7705 346.831 37.6066 346.637 38.2295ZM330.614 50.2295C330.646 50.5246 330.775 50.8525 331 51.0492C330.549 50.8197 330.099 50.5574 329.648 50.3279C330.002 50.2951 330.292 50.2623 330.614 50.2295ZM379.683 58.459C363.144 61.7377 346.412 59.2459 331.515 51.3115C331.643 51.3443 331.772 51.3443 331.901 51.3443C348.407 48.9181 364.656 51.4099 379.683 58.459ZM476.308 47.2131C478.206 48.9181 480.04 50.7213 481.681 52.6886C483.548 54.8853 485.575 55.8033 483.226 56.7213C479.751 58.0328 472.415 55.3443 468.65 54.5574C463.534 53.4754 458.482 52 453.784 49.6066C444.067 44.6886 438.018 36.2295 432.452 27.1476C443.198 30.164 453.978 33.3115 463.856 38.6558C468.296 41.0492 472.543 43.8689 476.308 47.2131ZM558.229 53.6722C557.81 53.3771 557.392 53.1148 556.974 52.8197C557.65 53.1148 558.293 53.4099 558.969 53.7049C558.937 53.7705 558.937 53.8361 558.904 53.9017C558.711 53.8361 558.486 53.8033 558.293 53.7377C558.261 53.6722 558.261 53.6722 558.229 53.6722ZM554.11 49.3443C552.63 48.7869 551.118 48.2623 549.573 47.8033C551.086 48.0984 552.598 48.4263 554.11 48.8197C554.078 48.9836 554.078 49.1804 554.11 49.3443ZM553.37 52.8853C553.434 52.9181 553.467 52.9509 553.531 52.9836H553.499C553.467 52.9509 553.434 52.9181 553.37 52.8853ZM567.656 58.1312C567.592 58.0984 567.528 58.0656 567.463 58.0328C567.463 57.9672 567.463 57.9345 567.463 57.8689C567.431 57.8033 567.399 57.7377 567.367 57.6722C567.624 57.7377 567.849 57.8361 568.139 57.8689C568.139 58.1312 568.171 58.4263 568.139 58.5902C568.01 58.4263 567.882 58.2623 567.656 58.1312ZM526.471 22.0656C517.333 22.5246 508.259 23.5082 499.153 24.1312C518.008 16.0656 537.893 11.6394 558.357 10.8853C549.734 19.1804 538.183 21.4754 526.471 22.0656ZM474.699 25.4427C475.568 25.7377 476.437 26.0328 477.273 26.4263C477.724 26.623 479.107 27.3443 480.491 28.2623C478.592 27.2459 476.662 26.2951 474.699 25.4427ZM480.845 32.8853C481.102 32.7541 481.263 32.5246 481.327 32.2623C481.81 32.4918 482.293 32.7213 482.775 32.9181C482.614 32.9836 482.454 33.082 482.228 33.1476C481.907 33.2131 481.424 33.1148 480.845 32.8853Z" fill="#333333"/>
<ellipse cx="286.299" cy="46.5" rx="9.27406" ry="9.42157" fill="#333333"/>
</g>
<defs>
<clipPath id="clip0_109_2">
<rect width="572" height="62" fill="white"/>
</clipPath>
</defs>
</svg>
