<svg width="122" height="242" viewBox="0 0 122 242" fill="none" xmlns="http://www.w3.org/2000/svg">
<g clip-path="url(#clip0_112_12)">
<path d="M121.811 181.488C121.1 179.74 117.834 179.716 117.526 178.015C117.479 177.779 117.218 177.519 116.982 177.471C112.934 176.833 109.147 177.873 106.069 180.496C105.975 180.425 105.88 180.378 105.762 180.354C100.104 179.385 94.447 179.031 88.7423 179.267C95.2992 176.195 101.477 172.604 105.738 166.602C105.785 166.555 105.785 166.508 105.809 166.437C110.259 167.737 116.485 164.759 119.443 162.184C120.887 160.932 121.929 159.112 121.337 157.151C120.603 154.717 118.213 155.403 117.005 153.701C115.893 152.142 117.005 152.378 116.627 150.866C116.485 150.275 116.082 149.897 115.632 149.566C113.336 147.818 108.957 148.81 106.401 149.047C106.282 149.07 106.164 149.094 106.069 149.141C105.738 148.999 105.312 149.023 105.052 149.377C103.205 151.953 102.495 154.836 102.235 157.954C102.045 160.27 101.454 163.342 103.395 165.09C103.702 165.374 104.057 165.61 104.412 165.799C98.5657 174.022 89.121 177.684 80.0314 181.677C86.4462 174.329 82.7536 158.923 79.6527 151.339C79.3686 150.63 78.4454 150.606 78.1614 151.339C74.1137 161.64 70.35 173.029 76.6701 183.189C68.7877 186.828 61.5444 191.176 57.544 199.587C57.1179 200.485 58.4435 201.265 58.8696 200.367C64.2192 189.12 75.5813 185.127 86.3989 180.307C86.4699 180.614 86.7066 180.85 87.109 180.827C93.1451 180.472 99.1102 180.779 105.099 181.772C105.146 181.866 105.217 181.961 105.312 182.032C108.886 184.749 115.798 187.702 120.201 185.174C121.479 184.465 122.402 183 121.811 181.488ZM107.584 153.3C107.561 153.371 107.513 153.442 107.49 153.512C106.732 156.135 105.998 158.616 104.91 161.026C104.697 158.333 106.069 155.663 107.584 153.3ZM107.49 150.464C108.105 150.37 108.768 150.299 109.478 150.228C109.194 150.488 109.005 150.842 108.934 151.315C108.768 151.409 108.602 151.504 108.484 151.622C108.508 151.055 108.034 150.582 107.49 150.464ZM110.922 159.987C110.969 160.034 111.017 160.081 111.064 160.128C110.993 160.199 110.922 160.246 110.851 160.317C110.875 160.223 110.922 160.105 110.922 159.987ZM114.899 157.695C114.544 157.789 114.189 157.907 113.857 158.049C113.952 157.789 114.07 157.529 114.141 157.246C114.402 157.411 114.662 157.553 114.899 157.695ZM111.608 152.071C111.608 152.047 111.608 152 111.608 151.977C111.632 152 111.679 152.024 111.703 152.071C111.679 152.071 111.632 152.071 111.608 152.071ZM116.556 159.538C116.721 159.396 116.816 159.254 116.887 159.112C116.911 159.301 116.887 159.514 116.745 159.774C116.177 160.294 115.538 160.719 114.851 161.05C114.757 161.097 114.662 161.121 114.567 161.168C115.23 160.624 115.893 160.081 116.556 159.538ZM105.762 164.594C105.927 164.263 106.211 163.649 106.543 162.869C106.495 163.176 106.401 163.483 106.353 163.791C106.259 164.31 106.519 164.854 106.945 165.114C106.638 165.043 106.33 164.948 106.046 164.783C105.951 164.736 105.88 164.665 105.762 164.594ZM107.821 165.232C108.602 164.972 109.289 164.523 109.928 164.027C110.07 164.098 110.236 164.169 110.401 164.169C111.23 164.216 112.271 164.121 113.36 163.932C111.679 164.665 109.596 165.35 107.821 165.232ZM119.704 159.443C119.751 159.041 119.751 158.687 119.633 158.38C119.893 158.711 119.941 159.065 119.704 159.443ZM114.662 152.095C114.544 151.575 114.354 151.102 114.094 150.724C114.899 151.15 114.875 151.575 114.662 152.095ZM106.14 150.559C106.211 150.582 106.306 150.606 106.424 150.582C106.543 150.582 106.661 150.559 106.78 150.535C106.59 150.63 106.401 150.748 106.259 150.961C105.643 151.882 105.075 152.851 104.531 153.843C104.981 152.591 105.549 151.457 106.14 150.559ZM78.8715 153.749C80.2918 157.624 81.286 161.593 81.5227 165.752C81.8304 170.596 81.9487 178.511 77.6406 181.866C72.4094 172.84 75.3682 162.916 78.8715 153.749ZM117.431 184.371C116.532 184.702 114.544 184.324 113.786 184.182C111.395 183.78 109.241 182.835 107.253 181.512C109.383 179.763 112.224 178.464 115.017 178.771C116.437 178.936 116.461 179.74 117.645 180.425C117.881 180.543 118.142 180.661 118.378 180.756C120.367 181.276 120.035 182.457 117.431 184.371Z" fill="#333333"/>
<path d="M57.7097 213.126C57.8044 199.02 56.1238 184.867 53.733 170.69C53.8513 170.596 53.9224 170.477 53.9697 170.288C56.2658 158.711 62.7043 147.464 67.9592 136.949C69.6635 133.547 71.5099 130.191 73.5929 127.049C73.6402 127.096 73.6639 127.143 73.7349 127.167C84.1975 132.79 96.53 132.153 106.306 125.442C107.111 124.875 106.353 123.552 105.525 124.119C96.1513 130.546 84.5289 131.231 74.4924 125.844C74.4687 125.844 74.4451 125.844 74.4451 125.82C74.8238 125.277 75.2025 124.757 75.6049 124.237C85.0733 119.937 95.3702 119.771 105.052 123.741C105.975 124.119 106.377 122.63 105.454 122.252C96.3643 118.519 86.7066 118.377 77.688 121.685C80.5285 118.472 83.7951 115.636 87.7481 113.533C88.979 114.077 90.6123 113.675 91.8669 113.368C94.163 112.801 96.6484 111.95 98.1633 110.037C98.9918 108.997 99.2285 107.792 99.6546 106.54C100.294 104.697 101.312 103.208 102.093 101.436C102.898 99.6165 103.395 97.2537 101.903 95.5997C100.862 94.4655 99.4179 94.2765 98.116 94.8436C98.0687 94.3474 97.5479 93.8748 96.9798 94.2056C91.9852 97.0883 88.2452 101.719 86.8013 107.343C86.4226 108.784 85.7834 111.005 86.5646 112.447C83.0376 114.384 80.0077 116.889 77.3566 119.724C77.8063 111.903 74.232 104.626 67.7225 100.089C67.3438 99.8291 66.6573 100.065 66.5863 100.538C65.6868 107.248 60.7396 125.371 72.8118 125.111C72.8828 125.111 72.9538 125.088 73.0011 125.064C70.8944 128.065 69.0481 131.255 67.3674 134.539C62.1125 144.746 55.9107 155.828 53.0702 167.146C49.7089 147.96 45.2351 128.75 42.2999 109.658C42.3473 109.611 42.4183 109.54 42.442 109.446C49.3302 94.182 60.929 82.2261 72.7408 70.6483C75.889 75.2322 80.8599 78.611 86.5646 78.7764C91.7722 78.9182 96.7431 76.39 98.3764 71.3099C98.6841 70.3648 97.1928 69.9631 96.8851 70.9082C93.3345 81.8717 80.1971 76.9807 74.5634 70.4357C74.7054 70.4593 74.8711 70.4357 75.0132 70.3648C82.8009 66.159 91.7248 66.3007 99.3706 70.6956C100.223 71.1918 101.004 69.8686 100.152 69.3724C92.0562 64.7176 82.6115 64.5759 74.3977 68.9471C74.5634 68.6399 74.4924 68.3091 74.2794 68.0728C77.1672 65.2847 79.8184 62.3548 82.0198 58.976C91.1094 59.6376 99.4889 53.0926 100.98 44.1138C101.146 43.1451 99.6546 42.7198 99.4889 43.7122C98.1633 51.7458 91.0621 57.5819 83.0139 57.4874C83.0376 57.4401 83.085 57.3929 83.1086 57.3456C84.6236 54.6993 85.9491 51.793 88.1032 49.572C91.0384 46.5475 94.8731 45.5788 98.8261 44.6573C99.7966 44.4446 99.3942 42.9561 98.4237 43.1687C92.8137 44.4446 88.3399 46.1459 85.0023 51.0605C83.2033 53.7305 81.9014 56.684 80.0551 59.354C77.8537 62.5438 75.0842 65.2847 72.2673 67.9074C71.9833 67.9783 71.7229 68.191 71.6519 68.4981C71.2968 68.8053 70.9654 69.1361 70.634 69.4433C70.492 69.585 70.4447 69.7268 70.421 69.8686C70.492 65.899 69.0718 62.1894 66.7757 58.8342C65.8052 57.4165 63.3907 52.8799 61.2603 54.9592C58.9406 57.2511 59.6507 62.7801 60.5976 65.4265C61.8521 68.9707 64.3849 71.8297 67.7935 73.4128C57.7097 83.4784 48.1703 94.1111 41.9449 107.059C39.057 87.1408 38.0155 67.364 41.8739 47.8707C42.1342 48.0598 42.4893 48.0834 42.7497 47.7526C49.1882 40.0262 57.0233 33.9065 66.0892 29.5116C66.9887 29.0863 66.2076 27.7631 65.3081 28.1884C63.2487 29.1808 61.284 30.2677 59.343 31.4491C62.1362 23.7463 65.3791 15.949 72.2673 11.0107C72.3857 10.9162 72.4567 10.8217 72.5277 10.7036C78.6585 12.5702 83.6294 5.78891 80.5995 0.283535C80.3391 -0.1654 79.8657 -0.1654 79.5343 0.0472533C79.487 0.0472533 79.4633 0.0472533 79.416 0.0472533C77.4749 0.519817 75.6049 1.13415 73.8059 1.96114C72.3147 2.64636 70.35 3.44971 69.3795 4.86741C68.0302 6.80492 69.2848 8.95508 71.0601 10.0656C63.6985 15.5946 60.3372 24.1244 57.331 32.5597C57.3073 32.6305 57.3073 32.7014 57.3073 32.7723C51.721 36.4347 46.7027 40.8295 42.2999 45.9568C44.0516 37.8524 46.608 29.7952 50.3244 21.8325C52.4074 21.6907 54.4431 19.7059 55.2953 18.1937C57.6387 14.0824 55.9817 9.33314 54.3958 5.26909C54.1827 4.72564 53.52 4.65475 53.1412 4.91466C52.9992 4.89103 52.8335 4.91466 52.6678 5.0328C49.6616 7.08846 47.6022 10.1365 46.9631 13.728C46.5844 15.8073 46.3713 20.3439 48.5964 21.5725C48.6674 21.6198 48.7384 21.6198 48.8094 21.6434C46.9394 25.7311 45.3535 29.8188 44.0042 33.9301C43.2941 30.5276 41.2347 27.6214 38.1102 25.9201C39.6488 23.4392 38.5599 17.3195 37.9918 15.2402C36.8083 10.9635 33.8731 7.53739 29.5413 6.33235C28.5945 6.07244 28.1684 7.53739 29.1389 7.82093C32.9499 8.8842 35.5064 11.9086 36.5242 15.6655C37.258 18.3355 38.4179 25.5421 34.1571 24.8805C30.8905 24.3843 28.8548 19.5878 28.2867 16.8469C27.6003 13.4681 28.05 9.90021 28.4288 6.52138C28.5471 5.529 27.0085 5.55262 26.8901 6.52138C26.2984 11.9322 25.7303 17.9574 29.0915 22.6594C30.4171 24.5261 34.2755 28.023 36.9976 26.8653C37.045 27.0307 37.1397 27.1724 37.329 27.2669C40.2406 28.85 42.2526 31.6382 42.655 34.9461C42.7023 35.4187 43.1047 35.6549 43.4835 35.6786C39.2701 49.3829 37.8024 63.2054 38.0155 77.1461C33.0919 74.098 29.4703 70.034 26.6534 65.4029C30.4408 64.0797 32.9972 61.0789 34.2045 57.2748C35.0566 54.6284 35.175 51.793 35.175 49.0521C35.175 47.5399 35.459 45.886 34.3938 44.7282C34.2045 44.5155 33.8967 44.4683 33.6364 44.5392C27.979 45.9805 23.6946 52.4073 23.0318 58.3144C21.1381 53.8487 19.6942 49.1467 18.3449 44.4919C18.5343 44.3738 18.6763 44.1847 18.6763 43.8776C18.7473 40.0498 18.8184 35.9621 17.1141 32.4415C15.3151 28.7555 11.8591 26.5345 8.47416 24.4552C8.04809 24.1953 7.47998 24.4552 7.33796 24.9041C4.80517 33.2449 9.11328 42.1291 17.0667 45.5315C18.8894 51.8166 20.9487 58.1254 23.9786 63.7961C23.9076 63.7725 23.8129 63.7725 23.7182 63.7725C15.5044 64.7885 7.74036 60.7481 3.76365 53.6124C9.94176 54.274 15.5518 56.6368 20.357 60.6536C21.1144 61.2915 22.2033 60.2046 21.4458 59.5667C15.9305 54.9592 9.51568 52.4073 2.36706 51.9348C1.72795 51.8875 1.46756 52.5964 1.70427 53.0926C5.60998 61.5042 14.5103 66.4425 23.7182 65.3083C24.1443 65.2611 24.381 64.9303 24.4284 64.5759C27.5293 70.1285 31.6007 75.0195 37.4 78.5638C37.6368 78.7055 37.8735 78.7055 38.0628 78.611C38.4652 95.8596 41.3294 113.226 44.7144 130.664C44.2646 129.955 43.8622 129.199 43.3888 128.49C43.4598 128.065 43.2231 127.592 42.7023 127.545C38.8913 122.134 34.4175 117.29 29.778 112.565C29.92 112.517 30.0147 112.447 30.1094 112.328C30.2514 112.73 30.7248 113.061 31.2219 112.848C34.6542 111.312 36.6899 108.028 36.9266 104.295C37.0687 102.145 36.5716 99.9709 35.7904 97.9625C35.4117 96.9937 34.6069 94.1584 33.376 93.7331C31.1746 93.0006 29.3283 96.8284 28.6891 98.3642C26.9612 102.546 27.695 107.13 28.6655 111.407C24.1917 106.847 19.6942 102.31 15.6465 97.3954C17.2324 96.852 18.4396 95.5761 18.8894 93.1424C19.1261 91.8428 20.0256 89.1492 19.0787 87.9205C18.7947 87.5425 18.3449 87.448 17.9662 87.2826C16.901 86.8336 15.8832 86.7864 14.8416 86.1484C14.4392 85.9121 14.0605 85.5577 13.6818 85.2978C9.61037 82.6987 4.47377 83.3367 0.82845 86.3611C0.497057 86.621 0.520727 86.9754 0.710095 87.2353C-1.04155 92.2917 4.97086 95.3398 8.92391 96.7575C10.7229 97.3954 12.5219 97.7735 14.1315 97.679C14.1315 97.8444 14.1789 97.9861 14.2972 98.1279C18.2976 103.043 22.7951 107.532 27.2215 112.069C18.416 111.005 9.72872 110.296 1.08883 112.754C0.426044 112.943 0.355031 113.793 0.899462 114.148C9.51568 119.724 20.2149 119.842 28.9495 114.455C29.0915 114.36 29.1626 114.242 29.2336 114.124C33.3286 118.33 37.258 122.654 40.714 127.38C38.6783 127.285 36.6426 127.191 34.6069 127.096C34.4412 127.025 34.2518 127.002 34.0624 127.072C30.1567 126.883 26.2274 126.694 22.3217 126.624C18.3923 126.529 15.1494 126.718 12.0248 129.246C11.5277 129.648 11.8828 130.333 12.3562 130.522C19.9546 133.665 28.4524 134.657 34.7016 128.49C37.116 128.679 39.5068 128.868 41.8739 128.986C43.0811 130.735 44.2173 132.554 45.2351 134.444C45.3061 134.563 45.4008 134.657 45.4955 134.728C50.5374 160.412 56.2421 186.167 56.1948 211.756C48.7384 206.109 41.8975 200.273 37.045 192.097C37.0213 191.885 36.9266 191.672 36.7136 191.507C36.6899 191.507 36.6899 191.483 36.6662 191.483C35.8614 190.089 35.104 188.695 34.3228 187.277C38.6783 185.316 43.0811 183.048 45.8269 178.984C48.8331 174.518 47.7206 169.674 47.9336 164.618C47.9573 164.074 47.2472 163.602 46.7737 163.956C39.9092 169.202 33.0446 175.25 32.8552 184.489C29.9437 178.842 27.3162 173.053 24.8308 167.264C24.7361 167.051 24.5941 166.933 24.4284 166.886C24.5941 166.579 24.5941 166.177 24.2627 165.941C25.3989 162.184 26.4641 158.427 27.4346 154.623C28.0264 152.307 29.6596 148.55 28.1684 146.188C27.0558 144.463 24.9728 144.25 23.1265 144.416C20.5227 144.652 19.4575 146.14 17.2561 146.778C15.3861 147.298 11.3383 145.502 9.82341 147.369C8.61619 148.834 10.0364 151.339 10.5809 152.733C12.948 158.592 17.1614 163.318 22.4637 166.626C22.44 166.721 22.4163 166.791 22.369 166.886C22.156 167.571 22.8898 167.973 23.4105 167.784C23.4105 167.878 23.4342 167.973 23.4815 168.067C26.5114 175.132 29.6596 182.457 33.4707 189.285C30.1804 187.064 26.7481 185.056 23.1501 183.355C21.9903 182.811 20.783 182.339 19.5522 181.89C16.7353 173.431 9.77606 167.429 0.899462 166.083C0.284018 165.988 -0.142059 166.413 -0.047375 167.028C1.06516 173.738 3.02985 177.637 9.61037 179.976C12.7349 181.087 15.7648 182.221 18.7 183.426C24.4994 185.836 30.0147 188.648 35.3407 192.499C36.1218 193.775 36.9266 195.051 37.7551 196.279C39.5541 198.902 41.6135 201.289 43.8385 203.486C40.0749 203.013 36.4059 202.281 32.7605 201.265C32.7369 201.241 32.7369 201.241 32.7369 201.218C32.0978 200.651 31.4113 200.154 30.7485 199.658C30.6302 199.446 30.4408 199.28 30.2041 199.233C22.7714 193.775 13.9185 191.247 4.56846 192.026C4.00035 192.074 3.59795 192.641 3.90567 193.184C7.7877 200.249 20.0019 203.392 28.0264 201.383C28.05 201.383 28.0737 201.407 28.0974 201.43C33.8494 203.368 39.7198 204.644 45.7559 205.258C49.0461 208.283 52.5968 211.023 56.1948 213.717C56.0764 222.838 55.2006 231.934 53.2832 240.984C53.0702 241.953 54.5615 242.354 54.7745 241.386C56.7392 232.171 57.5914 222.932 57.686 213.646C57.7807 213.528 57.7807 213.315 57.7097 213.126ZM92.2456 106.894C92.4113 106.445 92.5533 105.925 92.719 105.358C93.4055 104.318 94.163 103.326 94.9914 102.428C94.9204 102.665 94.8494 102.901 94.7784 103.113C94.305 104.389 93.8789 105.76 93.1924 106.941C92.8374 107.532 92.435 108.17 91.8905 108.642C91.8195 108.713 91.6302 108.831 91.4171 108.973C91.7485 108.359 91.9852 107.626 92.2456 106.894ZM97.9266 101.081C97.7373 102.428 97.4532 104.059 97.3349 104.366C96.9561 105.5 96.4354 106.469 95.7016 107.248C96.6247 105.311 97.1455 103.137 97.9266 101.081ZM89.4524 112.116C90.565 112.045 91.7959 111.501 92.719 110.863C92.9794 111.053 93.2871 111.147 93.6895 111.053C93.9973 110.982 94.2813 110.864 94.5654 110.745C92.8847 111.903 90.8964 112.636 89.4524 112.116ZM100.294 101.649C100.483 100.585 100.649 99.3802 100.317 98.3642C100.388 98.246 100.436 98.1279 100.436 97.9861C101.359 99.1203 101.312 100.349 100.294 101.649ZM97.3349 95.8596C97.4295 96.3085 97.9266 96.7102 98.4474 96.3794C98.6131 96.4739 98.7551 96.5684 98.9208 96.6866C98.8498 96.7102 98.7551 96.7102 98.6841 96.7338C98.6131 96.7575 98.5421 96.8047 98.4711 96.852C98.3054 96.852 98.1397 96.8284 97.974 96.852C97.7373 96.4503 97.2875 96.1904 96.7668 96.214C96.9561 96.1195 97.1455 95.9777 97.3349 95.8596ZM67.9119 102.216C73.8296 106.847 76.7175 113.959 75.7233 121.473C75.7233 121.52 75.7233 121.543 75.7233 121.591C75.3446 122.063 74.9895 122.536 74.6108 123.008C74.2794 123.174 73.9243 123.292 73.5929 123.457C73.4272 123.528 73.3325 123.646 73.2852 123.765C73.1668 123.67 73.0248 123.623 72.8354 123.623C63.296 123.835 66.7993 108.831 67.9119 102.216ZM73.9716 69.6087L73.9953 69.585C73.9953 69.6087 73.9953 69.6323 73.9953 69.6559C73.9953 69.6323 73.9716 69.6323 73.9716 69.6087ZM70.7524 70.6011C70.6577 70.6956 70.5394 70.8137 70.4447 70.9082C70.4683 70.6483 70.4683 70.3884 70.4683 70.1285C70.5157 70.3175 70.6104 70.4829 70.7524 70.6011ZM61.5917 58.5979C61.9705 56.7549 61.8758 55.668 63.4144 57.0385C64.5269 58.0072 65.3791 59.4485 66.1602 60.6772C68.3616 64.1978 69.5215 68.0256 68.764 72.1605C68.764 72.2078 68.764 72.2314 68.764 72.2787C68.7404 72.255 68.7167 72.2314 68.693 72.2314C63.5801 69.8922 60.4555 64.1742 61.5917 58.5979ZM79.6053 1.72486C79.7947 2.17379 79.9131 2.64636 79.9841 3.09529C79.9367 3.00078 79.8657 2.92989 79.7947 2.85901C79.6527 2.64636 79.4396 2.45733 79.1082 2.41007C77.972 2.19742 77.1435 2.5991 76.3387 3.33157C76.2914 3.23706 76.1967 3.16618 76.0547 3.1898C75.5103 3.26069 74.9895 3.40246 74.4687 3.54423C76.1257 2.7645 77.83 2.15016 79.6053 1.72486ZM75.0368 4.67838C75.0368 4.67838 75.0605 4.67838 75.0368 4.67838C75.0368 4.70201 75.0132 4.72564 74.9895 4.74926C74.9895 4.74926 74.9895 4.72564 74.9658 4.72564C74.9895 4.70201 75.0132 4.70201 75.0368 4.67838ZM72.4094 7.56102C72.5277 7.53739 72.6224 7.51376 72.7408 7.49014C72.7408 7.53739 72.7408 7.58465 72.7408 7.65553C72.7408 7.75005 72.7408 7.82093 72.7408 7.91544C72.7408 7.93907 72.7408 7.98633 72.7408 8.00996C72.7644 8.05721 72.7881 8.08084 72.8118 8.1281C72.8354 8.17535 72.8354 8.22261 72.8591 8.24624C72.3857 8.41164 72.2437 8.19898 72.4094 7.56102ZM72.8591 5.17457C73.1668 4.91466 73.5692 4.6075 73.9716 4.46573C73.0485 5.0328 72.1963 5.74165 71.5809 6.63952C71.5099 6.73403 71.5099 6.82855 71.4389 6.94669C71.4152 6.94669 71.3678 6.97032 71.3442 6.97032C71.6756 6.23784 72.504 5.48174 72.8591 5.17457ZM70.6814 6.66315C70.6577 6.68678 70.6577 6.68678 70.6814 6.66315C70.6577 6.68678 70.6577 6.68678 70.6814 6.66315C70.6577 6.68678 70.6577 6.68678 70.6814 6.66315ZM73.0485 9.35676C72.8118 9.28588 72.5514 9.19137 72.3147 9.07323C72.7881 9.09685 73.2378 9.0496 73.6876 8.90783C74.8711 9.45128 76.2204 9.16774 77.2619 8.36438C77.5933 8.10447 77.8773 7.7973 78.1141 7.49014C78.3981 7.49014 78.6822 7.41925 78.9425 7.15934C79.1319 6.97032 79.2739 6.78129 79.416 6.56864C78.3271 8.7188 75.889 10.1601 73.0485 9.35676ZM71.4389 5.0328C71.3915 5.08006 71.3205 5.12732 71.2732 5.15094C71.3442 5.12732 71.3915 5.08006 71.4389 5.0328ZM53.2359 6.52138C54.1827 9.00234 55.1059 11.6014 54.8692 14.2951C54.6798 16.2798 51.0582 23.4155 48.6674 18.7608C46.5844 14.6967 50.0167 8.8842 53.2359 6.52138ZM26.7481 52.3601C27.8133 50.777 31.8847 45.3425 33.66 47.7053C34.7252 49.123 33.2103 55.5499 32.7842 56.8731C31.719 60.1338 29.565 62.8038 26.2747 63.9615C26.1564 64.0088 26.0617 64.0797 25.967 64.1506C25.5172 63.3472 25.0912 62.5438 24.6651 61.7169C24.6651 61.6696 24.6888 61.5987 24.6651 61.5515C24.0496 58.1726 24.8781 55.1482 26.7481 52.3601ZM8.61619 26.3218C11.7881 28.3066 14.8653 30.4804 16.2146 34.1664C17.2797 37.049 17.2561 40.1679 17.1851 43.216C16.9484 43.2869 16.759 43.4523 16.688 43.6885C10.3678 40.4987 7.03024 33.2212 8.61619 26.3218ZM29.2336 102.806C29.3756 101.2 30.5591 95.5524 32.6895 96.1195C34.8909 96.7102 35.53 102.405 35.4117 104.342C35.1986 107.556 33.3997 110.249 30.4645 111.572C30.3934 111.596 30.3461 111.643 30.2988 111.69C29.6123 108.784 28.9732 105.807 29.2336 102.806ZM5.23124 90.5196C3.76365 88.9602 5.27859 88.3222 6.91188 88.0387C6.05973 88.653 5.5153 89.6218 5.39694 90.6378C5.3496 90.6141 5.27859 90.5669 5.23124 90.5196ZM9.75239 90.874C9.65771 90.2361 9.70505 89.858 9.84708 89.7635C10.1548 89.8344 10.4388 89.9998 10.6282 90.2833C11.362 91.4884 10.7939 91.8664 9.96543 91.9373C9.82341 91.6538 9.72872 91.2994 9.75239 90.874ZM14.2262 90.0943C14.2972 90.1179 14.3446 90.1179 14.4156 90.1416C14.2972 90.2361 14.1552 90.3306 14.0368 90.4487C14.0605 90.307 14.0842 90.1652 14.0842 89.9998C14.1315 90.0471 14.1789 90.0707 14.2262 90.0943ZM11.5514 96.0486C8.07176 95.2453 0.284018 92.3626 2.29605 87.4243C2.31972 87.3534 2.31972 87.3062 2.31972 87.2353C5.25491 85.0379 9.23163 84.5417 12.4982 86.432C12.6876 86.5265 12.8533 86.6682 13.019 86.7864C12.9243 86.8809 12.877 87.0227 12.8059 87.1408C12.0248 86.4556 11.149 86.2665 10.3205 86.4556C10.3205 85.8649 9.94176 85.3214 9.18429 85.4159C6.98289 85.6522 2.69845 85.7704 2.17769 88.5112C1.63326 91.2994 4.28441 93.1424 6.67517 93.8748C7.33796 94.3474 8.19011 94.56 9.06594 94.56C9.75239 95.198 10.6045 95.6942 11.6224 95.836C13.0663 96.0486 14.2972 95.5761 15.173 94.7491C16.4276 94.182 17.2561 92.2681 17.3744 91.0867C17.4454 90.4724 17.3508 89.6926 17.1141 88.9365C17.9662 89.7163 17.7532 91.6774 17.3981 92.7879C16.4276 95.9069 14.3446 96.7102 11.5514 96.0486ZM21.9666 131.68C20.4517 131.585 16.6406 131.326 15.5281 130.215C13.8948 129.861 14.2972 129.483 16.7116 129.081C17.9189 128.348 19.1971 128.041 20.5937 128.207C24.5231 127.947 28.5945 128.136 32.6422 128.443C29.6123 130.9 26.0143 131.916 21.9666 131.68ZM3.38491 113.888C11.291 112.045 19.2681 112.73 27.2926 113.699C19.7415 117.976 10.9359 117.999 3.38491 113.888ZM12.8059 150.346C13.1847 150.323 13.5871 150.346 13.9658 150.37C13.7054 150.677 13.4924 151.055 13.374 151.48C13.1847 151.102 12.9953 150.724 12.8059 150.346ZM18.4396 157.789C18.4396 157.765 18.4396 157.765 18.416 157.742C18.5106 157.695 18.6053 157.647 18.7 157.576C19.9072 156.608 20.8304 155.568 21.5168 154.174C21.8956 153.394 22.1086 151.599 22.5584 150.086C22.8424 150.039 23.1265 149.945 23.3869 149.874C22.9371 152.449 21.9193 154.836 20.712 157.151C20.3806 156.986 20.0019 156.938 19.6232 157.128C19.2208 157.293 18.8184 157.529 18.4396 157.789ZM23.0081 159.514C22.6767 160.554 22.3453 161.593 22.0139 162.633C21.6825 162.113 21.4695 161.546 21.3512 160.955C21.9193 160.506 22.4874 160.01 23.0081 159.514ZM25.1858 152.496C25.5172 151.362 25.7539 150.204 25.8723 148.999C25.9907 149.165 26.0853 149.307 26.2037 149.472C25.9433 150.535 25.6119 151.551 25.1858 152.496ZM18.3213 148.881C18.3213 149.023 18.3449 149.165 18.3923 149.307C18.0372 149.425 17.7532 149.685 17.6585 150.086C17.5165 150.748 17.4218 151.409 17.3034 152.047C17.2797 151.599 17.2561 151.173 17.3034 150.724C17.3034 150.606 17.2798 150.512 17.2561 150.417C17.6585 150.063 17.8005 149.448 17.5875 148.976C17.8005 148.976 18.0372 148.976 18.2266 148.929C18.2503 148.929 18.2976 148.905 18.3213 148.881ZM34.4412 184.773C34.5359 176.526 40.3826 170.997 46.4187 166.272C46.4423 170.69 47.0341 174.849 44.1699 178.747C41.5661 182.315 37.5657 184.253 33.6364 186.025C33.5417 185.836 33.447 185.647 33.3286 185.434C33.8021 185.623 34.4175 185.41 34.4412 184.773ZM8.40315 177.849C5.82302 176.574 1.15984 172.651 1.91731 168.989C2.34339 166.91 4.87618 168.54 6.62783 169.343C11.9064 171.73 15.7411 176.006 17.8005 181.323C14.5813 180.283 11.3383 179.338 8.40315 177.849ZM6.01238 193.562C14.1078 193.161 21.8009 195.287 28.3814 199.8C21.6825 201.808 10.2968 199.186 6.01238 193.562Z" fill="#333333"/>
</g>
<defs>
<clipPath id="clip0_112_12">
<rect width="122" height="242" fill="white"/>
</clipPath>
</defs>
</svg>
