<svg width="50" height="191" viewBox="0 0 50 191" fill="none" xmlns="http://www.w3.org/2000/svg">
<path d="M49.9416 89.555C49.9026 88.8933 49.1415 88.7376 48.7511 89.2436C41.9596 98.1563 32.2406 108.1 28.2203 119.29C28.7667 98.779 28.5521 78.1903 26.8737 57.7378C27.0493 57.6989 27.2445 57.66 27.4201 57.6016C32.3382 55.7724 30.855 48.4554 29.3913 43.785C35.8315 41.3914 41.8425 37.0324 46.0774 31.603C49.2 27.5748 44.8089 22.2428 41.6863 19.207C42.8573 16.8329 43.3452 14.4588 41.5497 12.2014C40.086 10.3722 34.4459 3.89199 32.6699 8.03698C32.5919 7.8813 32.4553 7.76454 32.2991 7.70616C31.9869 4.14497 29.4888 2.17951 26.1906 0.836772C24.1219 -8.64267e-06 21.1555 -0.934089 20.7457 2.04329C20.6871 2.43249 20.7262 2.89953 20.8432 3.38603C19.9065 3.85307 18.9697 4.32011 18.0134 4.78715C17.7012 4.53417 17.1157 4.55363 16.9596 5.05959C16.0813 7.6867 15.086 10.4111 14.2859 13.1744C8.41155 12.649 -1.13177 18.2535 0.117253 24.9866C1.99079 34.9891 11.7098 39.5038 19.5942 43.9796C19.887 44.1548 20.1797 44.038 20.3553 43.8434C20.3163 43.9991 20.2773 44.1158 20.2578 44.2715C20.1212 44.3688 20.0236 44.5245 20.0236 44.758C20.2187 48.3776 19.4381 52.5809 21.8971 55.6167C22.8339 56.7648 24.1805 57.6405 25.6247 57.7768C26.5029 68.4019 26.9908 79.066 27.1664 89.7301C24.7855 78.346 14.8909 70.8539 5.40609 64.6072C4.72303 64.1596 4.079 65.2494 4.76206 65.697C5.11335 65.9305 5.48415 66.1835 5.83544 66.417C8.00172 72.0215 10.1875 77.7038 13.7199 82.6077C17.1742 87.4144 21.9361 90.8393 26.7371 94.2059C26.8737 94.3032 27.0493 94.3032 27.2055 94.2643C27.303 103.878 27.1664 113.491 26.8737 123.085C26.8542 123.591 26.8347 124.096 26.8151 124.602C26.62 125.673 26.4834 126.762 26.4248 127.852C26.4053 128.105 26.5224 128.261 26.6785 128.358C25.9369 149.044 24.4927 169.944 20.2383 190.202C20.0626 191 21.2921 191.331 21.4678 190.533C25.4881 171.345 27.0103 151.593 27.8105 131.997C27.8495 131.978 27.8885 131.958 27.9276 131.919C39.1883 120.204 50.8393 106.855 49.9416 89.555ZM26.3468 92.1237C25.2734 92.5323 21.1555 88.582 20.5115 88.0371C18.1696 86.0522 16.1204 83.8337 14.3444 81.3234C11.417 77.1589 9.46542 72.3912 7.65043 67.6624C11.3585 70.1728 14.9884 72.8194 18.111 76.0497C19.1063 77.0616 29.0985 91.0923 26.3468 92.1237ZM23.6926 53.5539C23.6536 53.5539 23.634 53.5539 23.595 53.5539C23.4974 53.5345 23.4194 53.2426 23.3413 52.8339C23.4389 53.0869 23.5755 53.3204 23.6926 53.5539ZM20.9799 42.345C20.9799 42.3061 20.9799 42.2671 20.9603 42.2282C20.9994 42.2088 21.0384 42.1893 21.097 42.1698C21.0384 42.2282 21.0189 42.2866 20.9799 42.345ZM41.6278 34.3858C37.9198 38.0249 33.8604 40.7493 29.0009 42.559C28.8643 42.1504 28.7277 41.7806 28.6106 41.4498C28.7472 41.2163 28.7277 40.8855 28.5326 40.652C28.9424 40.0098 29.3327 39.3871 29.684 38.7254C29.7425 38.706 29.7816 38.6865 29.8206 38.6281C32.143 34.7556 35.5778 32.0895 39.1493 29.443C41.1984 27.9251 43.1305 26.4072 44.0673 24.0331C44.5357 24.7726 44.9455 25.551 45.2383 26.3683C46.5653 30.1046 44.0478 32.0312 41.6278 34.3858ZM43.6575 23.4298C42.4279 27.1272 38.5052 29.0732 35.6169 31.389C33.8995 32.7706 32.3382 34.2496 30.9916 35.9426C31.4404 34.8723 31.8112 33.7826 32.1235 32.6733C32.3967 32.829 32.787 32.829 33.0212 32.4787C35.6559 28.4894 38.7004 24.5391 41.0423 20.3552C41.9986 21.2892 42.8963 22.3206 43.6575 23.4298ZM39.0712 21.0752C36.944 24.3445 34.7777 27.5748 32.6114 30.8246C33.2945 27.7889 33.5872 24.6558 33.6067 21.5033C35.8315 18.487 37.6075 15.2372 38.9346 11.7149C40.9057 14.7701 41.0618 17.981 39.0712 21.0752ZM33.4896 9.8273C34.0361 6.16882 37.6856 10.0608 38.5443 11.1311C37.3343 14.4977 35.6754 17.6113 33.6262 20.5108C33.6067 17.1053 33.3335 13.6609 32.9627 10.2554C33.2164 10.2749 33.4506 10.1387 33.4896 9.8273ZM31.0891 8.25104C31.0891 8.5624 31.3038 8.757 31.538 8.83484C32.0259 13.2912 32.4553 17.8059 32.3382 22.2622C32.2991 22.3206 32.2601 22.379 32.2016 22.4374C32.0649 22.6125 32.1625 22.8266 32.3187 22.9044C32.104 29.0343 30.8159 34.9891 27.225 40.3601C26.9127 40.3406 26.581 40.3406 26.2492 40.3406C26.3468 40.2433 26.4248 40.1071 26.4443 39.9319C26.5224 39.0757 26.5419 38.2 26.581 37.3438C26.6395 37.3048 26.698 37.2659 26.7176 37.1881C29.8792 25.9986 28.9619 14.5366 27.6153 3.13305C29.5084 4.98175 31.0891 7.64778 31.0891 8.25104ZM22.2094 3.01629C23.3023 0.447572 25.1953 1.01191 26.9713 2.51033C28.2593 13.2133 29.1766 23.9747 26.7371 34.5415C26.8932 29.19 26.62 23.8385 25.8393 18.5259C25.3319 15.0231 24.6294 11.5398 23.7121 8.11482C23.5169 7.31696 21.8581 3.83361 22.2094 3.01629ZM22.2679 7.60886C23.1266 10.7419 23.8292 13.9139 24.3561 17.1248C25.5856 24.6753 25.7808 32.3036 25.1758 39.9319C25.1563 40.1265 25.2148 40.2628 25.3319 40.3601C24.766 40.399 24.2195 40.4963 23.6731 40.6325C22.7363 28.8981 22.0923 17.0859 19.1258 5.64339C19.8089 5.29311 20.5115 4.96229 21.1945 4.61201C21.5653 5.70177 22.0532 6.811 22.2679 7.60886ZM17.9939 5.89637C18.1696 5.99367 18.3647 6.01313 18.5794 5.89637C21.5068 17.2999 22.1508 29.0927 23.0876 40.7687C22.4631 40.9828 21.8971 41.3331 21.4287 41.7806C21.4873 41.625 21.4678 41.4693 21.3702 41.2941C18.3257 35.9426 14.1883 30.416 13.8956 24.072C13.6418 17.8448 16.0423 11.7344 17.9939 5.89637ZM13.9346 14.4393C12.9393 18.1756 12.3148 21.9703 12.8027 25.7845C13.5052 31.1944 16.823 36.0399 19.5747 40.7103C17.3694 38.6086 14.5591 37.1881 12.5294 34.775C8.48962 29.9684 5.15238 24.5585 4.5669 18.1951C7.02592 15.9377 10.7925 14.3031 13.9346 14.4393ZM20.2383 42.8899C14.5786 39.679 8.39204 37.0908 4.70351 31.5252C2.04934 27.5164 -0.331615 23.5855 3.74723 18.993C3.84481 18.8957 3.94239 18.7984 4.03997 18.7011C4.5669 23.352 6.44044 27.4191 9.11413 31.2917C10.3241 33.0236 11.6317 34.775 13.0759 36.3318C15.2422 38.667 18.5208 39.9903 20.4334 42.5007C20.5505 42.6369 20.7066 42.6369 20.8432 42.5785C20.7262 42.7926 20.5895 42.9872 20.5115 43.2207C20.4724 43.0845 20.3944 42.9677 20.2383 42.8899ZM28.1032 124.661C30.328 112.245 41.0813 101.075 48.7121 91.3842C48.7121 107.03 38.271 119.29 27.908 130.168C27.9666 128.319 28.0251 126.49 28.1032 124.661Z" fill="#333333"/>
</svg>
