<svg width="73" height="191" viewBox="0 0 73 191" fill="none" xmlns="http://www.w3.org/2000/svg">
<g clip-path="url(#clip0_112_16)">
<path d="M70.31 48.5685C71.5515 48.0297 72.7309 44.5901 72.9171 43.8028C73.8689 39.8245 66.8131 37.7524 63.8749 36.5507C58.1019 34.1885 51.9979 33.194 45.8732 33.4219C49.1632 32.4066 52.5566 31.8264 56.0949 31.4742C60.0676 31.0805 65.9027 31.9922 69.6065 30.6039C72.4619 29.5265 73.124 25.1959 71.5515 22.3987C69.3996 18.5447 62.3437 21.3419 59.1572 22.2951C53.5291 23.9734 48.3769 26.6878 43.7213 30.1895C47.9837 25.8175 53.2187 22.4608 57.2536 17.8195C59.0538 15.7267 63.8128 10.1322 60.5435 7.39716C56.6535 4.14407 50.1771 10.1737 47.9837 12.7844C45.5007 15.7267 43.7833 19.1249 42.3142 22.6473C43.7213 18.4411 45.2731 14.297 46.8871 10.0908C48.4803 5.92601 51.1289 0.497288 44.9214 0.0621614C38.3828 -0.372966 37.8242 3.8747 37.0172 9.46919C36.2723 14.525 35.9619 19.6222 36.024 24.6986C35.4032 19.6014 34.948 14.4628 32.4236 9.80072C30.7683 6.73411 27.2301 1.07746 23.4021 4.95216C18.8706 9.53135 22.9883 19.933 26.0506 24.1185C26.1748 24.2842 26.2989 24.4707 26.4231 24.6365C24.954 23.4969 23.4228 22.4608 21.8709 21.3834C18.1464 18.8348 12.001 11.4583 9.49734 18.5033C6.6419 26.522 14.9806 31.5571 23.7539 34.7687C20.526 34.5822 17.3188 34.7273 14.1323 35.4939C11.3182 36.1777 3.84853 38.2912 3.49677 41.7515C3.31055 43.5749 6.66259 45.5018 7.67648 46.2271C9.58011 47.5946 10.5319 47.7189 12.7252 47.2009C13.0356 47.1388 13.346 47.0351 13.6357 46.9523C11.1941 48.6099 8.69037 51.0135 10.1181 53.6035C11.7527 56.5665 18.0844 54.5773 20.1742 53.4792C25.0988 50.9306 28.575 46.1649 32.6099 42.3109C30.3131 45.5226 28.3474 48.9414 26.8783 52.6711C25.7609 55.489 23.009 60.089 26.5058 61.8709C36.293 66.8852 39.0657 47.9054 39.5416 39.0785C39.8726 40.674 40.3692 42.6632 41.0107 44.7974C42.2315 57.789 43.1005 70.905 41.2176 83.8552C39.1898 97.7792 32.6099 109.693 27.5404 122.623C27.4577 122.851 27.3749 123.099 27.2921 123.327C26.3817 119.971 25.492 116.655 24.4781 113.382C35.0308 97.3648 14.0288 82.5705 3.82784 73.5365C3.28986 73.0599 2.60703 73.5365 2.71049 74.1995C4.1589 83.1507 6.80743 91.7703 10.3871 100.1C12.8494 105.839 15.6634 113.299 23.009 113.195H23.0297C24.2918 117.256 25.3678 121.4 26.5058 125.565C25.7816 127.658 25.1609 129.771 24.6229 131.906C24.5608 132.009 24.4988 132.113 24.4574 132.216C24.3539 132.424 24.3539 132.61 24.4367 132.776C22.8434 139.593 22.2227 146.576 22.5951 153.475C21.2916 150.119 19.7397 146.555 17.774 143.385C17.8361 143.26 17.8568 143.095 17.7947 142.908C14.5668 134.496 8.81452 127.658 1.07585 123.079C0.662022 122.83 0.0205826 123.141 0.0619658 123.659C0.641331 132.486 7.59371 142.659 16.698 144.255C19.45 148.751 21.4157 154.014 22.8848 158.158C22.9262 158.262 22.9676 158.345 23.0297 158.407C23.3814 161.204 23.8573 163.96 24.5195 166.695C24.4781 166.964 24.416 167.213 24.3746 167.482C24.3125 167.918 24.6229 168.228 24.954 168.311C27.0645 176.206 30.4579 183.789 35.217 190.71C35.7136 191.414 36.8723 190.751 36.3757 190.026C31.4925 182.919 27.9543 175.045 25.8644 166.778C27.0231 160.5 29.4647 155.092 32.8582 150.347C33.0444 150.554 33.3548 150.658 33.6651 150.512C46.3284 145.001 57.3984 136.816 66.3993 126.311C66.7303 125.917 66.5648 125.089 65.9234 125.172C52.0807 126.85 33.7686 131.823 32.6306 148.42C29.2164 152.875 26.63 157.91 25.1609 163.711C24.4574 160.292 23.9815 156.811 23.7746 153.289C23.3607 145.85 24.3125 138.805 26.1127 131.926C30.9545 122.747 37.4931 114.563 45.7077 108.347C45.8525 108.45 46.0387 108.492 46.2456 108.45C51.6875 107.186 57.295 105.86 62.0333 102.773C66.7096 99.7269 69.503 95.1478 72.1515 90.3406C72.4412 89.8226 71.9653 89.2217 71.3859 89.3461C65.8406 90.5893 58.971 91.1073 54.1291 94.3604C49.7011 97.3648 47.0733 102.773 44.2592 107.166C44.1351 107.373 44.1351 107.58 44.2179 107.746C37.7414 112.76 32.3409 118.997 27.975 125.959C27.9543 125.917 27.9543 125.855 27.9336 125.814C29.1958 122.105 30.6442 118.437 32.2995 114.77C37.3069 103.56 41.6521 92.6406 42.9557 80.312C44.0316 70.2419 43.5971 60.1304 42.7695 50.0603C45.5214 57.0431 49.5977 63.2384 54.5016 59.8818C61.2884 55.2404 52.4738 46.5793 45.5421 41.0677C50.1977 43.5127 55.1844 45.2118 60.3573 46.5586C62.6541 47.1802 67.9718 49.563 70.31 48.5685ZM8.83521 92.6613C6.84881 87.1497 5.35902 81.5345 4.32444 75.7742C14.3185 84.3525 31.9684 97.4892 23.8987 111.662C22.3468 106.834 20.5053 102.131 17.9395 97.6135C17.505 96.8675 16.3463 97.5306 16.7808 98.2972C19.2638 102.649 21.0433 107.166 22.5331 111.807C14.4633 111.475 11.0492 98.8153 8.83521 92.6613ZM1.48969 124.964C6.99366 128.507 11.401 133.252 14.4426 138.971C13.1598 137.562 11.7527 136.319 10.1802 135.407C9.43527 134.972 8.75244 136.133 9.49734 136.568C11.8355 137.956 13.8426 140.111 15.5807 142.618C8.25584 140.484 2.54496 132.403 1.48969 124.964ZM64.1646 126.746C55.7017 136.215 45.5007 143.695 33.9134 148.896C38.2794 143.281 44.011 138.598 50.4254 134.454C51.1496 133.978 50.4874 132.817 49.7425 133.294C43.7833 137.127 38.4035 141.458 34.0997 146.534C36.3344 132.859 51.8324 128.445 64.1646 126.746ZM56.7156 94.5261C60.8332 92.5784 65.7164 91.8947 70.2479 90.983C67.6408 95.5414 64.7439 99.7477 60.0056 102.421C56.3018 104.513 52.1841 105.653 48.0665 106.648C49.7011 105.529 51.3772 104.472 53.136 103.519C53.9015 103.104 53.2187 101.944 52.4531 102.358C50.384 103.477 48.439 104.741 46.5353 106.088C49.2045 101.675 51.9772 96.7639 56.7156 94.5261ZM64.3508 22.3987C67.02 21.9014 69.3789 22.2744 70.6204 25.2788C71.2618 26.8743 70.31 27.8688 69.1926 28.6355C66.9993 30.1274 63.1714 29.6301 60.5849 29.7958C58.164 29.9409 55.7224 30.1274 53.3222 30.4589C49.2252 30.9976 45.3559 32.0129 41.6107 33.6291C46.018 29.8166 50.9013 26.7085 56.3845 24.6572C58.9503 23.6626 61.6195 22.896 64.3508 22.3987ZM45.2111 19.4357C46.4733 16.9492 48.0044 14.5664 49.9287 12.5565C50.984 11.4583 52.4945 9.55207 53.9636 9.34487C55.0396 8.45389 56.0328 8.90974 56.9639 10.7124C59.3641 11.3133 59.9228 12.2872 58.6192 13.6547C57.5019 17.3844 51.9151 21.0726 49.0597 23.4554C45.7284 26.2319 42.5212 29.0085 39.8933 32.4688C39.6657 32.7796 39.7692 33.0904 40.0175 33.2561C39.9347 33.5048 40.0589 33.7741 40.2658 33.9399C40.0589 33.9813 39.8519 33.9813 39.645 34.0228C39.1898 34.1057 39.0863 34.4993 39.2105 34.8516C39.1277 35.1624 39.314 35.4939 39.6036 35.639C39.5829 35.639 39.5416 35.639 39.5209 35.6597C39.5002 35.639 39.4588 35.6182 39.4381 35.5975H39.4174C39.2519 35.3489 38.9415 35.266 38.6725 35.3282C38.7346 35.1002 38.7967 34.8723 38.838 34.6237C41.0934 29.6301 42.7074 24.3257 45.2111 19.4357ZM37.3689 19.3528C37.4931 16.4519 37.7621 13.5511 38.1552 10.671C38.3415 9.34487 38.3414 7.21067 38.9001 5.92601C39.7485 3.95758 46.3698 -2.38284 47.363 4.30983C47.632 6.17466 45.5214 9.71783 44.8386 11.4583C43.8868 13.8619 42.8936 16.2447 42.0039 18.669C40.2658 23.4554 38.9001 28.3454 37.7414 33.2976C37.3483 28.6769 37.162 24.0149 37.3689 19.3528ZM24.6643 19.2077C23.7332 16.9907 21.9744 11.4998 23.1538 9.17911C24.8712 8.20525 26.6093 7.2314 28.3267 6.25754C28.9888 7.14851 29.651 8.03949 30.3131 8.93046C31.2028 10.3602 32.0098 11.9142 32.5892 13.4889C33.5824 16.1826 33.9962 19.0213 34.3273 21.8599C34.8239 26.1076 35.1342 30.2102 36.4999 34.23C36.5206 34.5408 36.562 34.8516 36.5827 35.1624C34.4307 33.5048 32.8375 31.3706 31.0994 29.2571C30.3545 27.9724 29.5889 26.6463 28.6371 25.3202C27.2094 23.2897 25.6368 21.5491 24.6643 19.2077ZM21.1881 31.8679C18.4154 30.6246 15.1461 29.1742 12.9115 27.0608C9.66287 24.0149 8.62829 15.5402 15.291 18.5447C20.0294 20.6582 25.7609 25.1338 29.1337 29.0292C29.1958 29.1121 29.2578 29.1949 29.3406 29.2571C31.0166 32.0129 32.6719 34.6029 35.217 36.5921C34.5549 36.4471 33.8721 36.302 33.2099 36.157C29.1337 34.9345 25.0781 33.6084 21.1881 31.8679ZM6.86951 43.8649C4.98657 43.1604 4.82104 42.2488 6.35222 41.1299C8.31792 36.9651 16.5532 36.157 20.5053 36.0534C23.9401 35.9498 27.3335 36.3849 30.6856 37.0272C31.5339 37.2759 32.3616 37.5038 33.1685 37.711C29.0923 39.1614 25.0781 40.8191 21.2088 42.7253C18.9534 43.5956 16.4911 44.8388 14.1323 45.2946C11.67 46.5379 9.26973 46.0613 6.86951 43.8649ZM19.45 52.3188C16.0359 54.7431 14.2564 53.3341 14.153 48.1333C15.0841 47.5324 16.0566 46.9523 17.0291 46.4135C17.7947 45.9784 18.581 45.5847 19.3465 45.191C24.7057 43.3055 30.0234 40.7983 35.1342 38.4984C29.5682 42.5803 25.7196 49.2108 19.45 52.3188ZM34.5549 55.717C33.4168 58.3692 27.9956 64.5438 26.1955 59.1565C25.8644 58.1827 27.1887 55.6134 27.5818 54.5359C28.4715 52.0702 29.5475 49.6666 30.8304 47.3874C32.5892 44.2586 34.7204 41.4199 37.1 38.747C37.1206 38.747 37.1413 38.7263 37.162 38.7263C37.5345 38.8299 37.8862 38.9128 38.2173 39.0164C38.1138 42.4974 37.6793 45.937 36.7896 49.3558C36.1895 51.5315 35.4446 53.6242 34.5549 55.717ZM54.7085 57.7476C50.3012 62.6583 45.1076 52.0909 43.9696 49.6873C43.3488 48.382 42.8315 47.0351 42.3763 45.6676C42.2108 43.7613 42.0246 41.8343 41.8383 39.9281C47.7354 44.3622 58.6399 53.3756 54.7085 57.7476ZM40.3485 36.2813C40.3072 36.0119 40.1416 35.8462 39.9347 35.7426C40.0175 35.7426 40.1209 35.7218 40.2244 35.6597C40.5761 35.4732 40.9486 35.3282 41.3003 35.1624C47.4251 34.3129 53.5912 34.6444 59.5504 36.4471C62.4472 37.3173 65.2405 38.4984 67.8684 39.9695C69.1099 40.674 71.2618 41.8343 71.3032 43.5749C71.3032 43.8442 70.6824 44.1965 70.579 44.4865C68.903 48.9621 60.916 45.3982 57.3777 44.3622C51.253 42.5596 45.4801 40.0731 40.3485 36.2813Z" fill="#333333"/>
</g>
<defs>
<clipPath id="clip0_112_16">
<rect width="73" height="191" fill="white"/>
</clipPath>
</defs>
</svg>
