<svg width="171" height="294" viewBox="0 0 171 294" fill="none" xmlns="http://www.w3.org/2000/svg">
<g clip-path="url(#clip0_111_6)">
<path d="M67.2278 12.2802C67.1826 12.3255 67.1373 12.3935 67.092 12.4388C67.2504 12.2576 67.2731 12.2349 67.2278 12.2802Z" fill="#333333"/>
<path d="M169.62 131.163C167.832 135.354 158.509 134.72 154.821 134.561C150.137 134.335 145.702 133.587 142.217 130.302C150.997 126.994 160.229 127.22 168.805 131.14C169.665 131.525 170.412 130.256 169.552 129.871C160.885 125.906 151.562 125.476 142.624 128.625C146.946 123.912 150.884 118.769 155.047 113.717C155.115 113.762 155.228 113.807 155.341 113.83C158.238 114.238 161.134 114.238 164.008 113.558C165.682 113.173 169.62 112.221 170.661 110.635C171.566 109.23 170.57 108.437 169.574 107.486C168.171 106.149 167.493 104.744 166.474 103.181C165.909 102.32 165.637 102.003 164.732 101.504C164.279 101.255 163.759 101.164 163.261 101.006C161.632 100.462 160.863 99.9637 159.573 98.9214C158.849 98.3323 157.944 97.3581 157.016 97.1995C155.387 96.9049 154.527 98.1964 153.825 99.5558C152.083 102.977 151.608 109.344 153.916 112.788C145.543 122.983 137.963 133.746 126.242 139.999C133.799 121.601 139.502 102.479 145.091 83.4239C149.662 82.5629 154.64 81.6566 158.826 79.6628C160.591 78.8245 162.514 77.465 162.424 75.2446C162.288 72.0047 158.17 71.8687 156.541 69.8069C154.595 67.3146 153.486 65.5247 150.046 65.2528C147.241 65.0262 145.566 63.916 143.258 62.33C142.308 61.673 140.927 60.4721 139.637 60.5401C137.805 60.6307 137.737 61.6503 137.42 63.4855C136.266 70.3507 137.216 79.2096 143.62 83.152C140.701 93.0759 137.759 103 134.546 112.856C134.682 106.24 131.763 99.941 127.464 94.458C127.034 93.8915 126.264 94.4126 126.219 94.9791C125.337 104.155 124.884 113.739 131.424 121.035C131.537 121.148 131.65 121.216 131.763 121.239C129.455 127.923 126.988 134.516 124.25 141.041C123.934 141.2 123.843 141.494 123.934 141.766C121.331 147.974 118.503 154.092 115.38 160.051C114.226 162.248 112.959 164.401 111.647 166.553C107.37 154.024 109.701 140.588 107.438 127.719C107.574 127.741 107.755 127.719 107.913 127.628C110.606 125.974 115.765 121.669 115.131 117.953C114.95 116.866 114.43 116.503 113.412 116.367C112.688 116.277 111.873 116.662 111.149 116.571C110.583 116.503 110.04 116.209 109.474 116.096C108.592 115.937 107.8 115.982 106.94 116.232C105.628 116.617 104.7 117.206 103.274 117.387C102.165 117.523 100.785 117.025 99.699 117.296C98.2056 117.659 97.5946 119.086 97.3231 120.491C96.3501 125.68 101.917 126.178 105.786 127.515C105.831 127.537 105.899 127.537 105.944 127.537C107.121 133.859 107.166 140.294 107.37 146.705C106.51 144.78 104.949 143.284 103.184 141.812C98.8618 138.186 94.4041 134.697 90.0142 131.14C89.4259 130.664 88.6792 131.117 88.7923 131.865C90.1274 141.449 97.2778 153.525 107.8 154.318C108.185 158.918 108.954 163.472 110.583 167.913C110.628 168.026 110.674 168.094 110.742 168.162C105.401 176.636 99.3596 184.77 95.4676 193.923C91.1004 204.187 89.9916 215.38 89.9464 226.459C84.5835 207.789 81.8003 188.757 81.5061 169.249C81.5514 169.249 81.5966 169.249 81.6419 169.249C87.8646 167.618 94.6982 164.016 94.653 156.652C94.653 156.086 94.042 155.746 93.5442 156.018C89.6296 158.125 83.9047 159.394 81.4608 163.245C81.4835 154.364 81.7324 145.482 82.1397 136.6C82.4338 136.328 82.5244 135.807 82.1849 135.445C82.366 131.276 82.5922 127.107 82.7959 122.938C90.3989 119.925 93.0464 113.15 95.9654 106.081C96.0333 105.99 96.0785 105.9 96.0785 105.787C96.1012 105.696 96.1464 105.628 96.1691 105.537C96.5311 104.676 95.1961 104.314 94.7887 105.084C90.0595 107.531 85.4207 110.748 83.1806 115.416C83.4295 110.862 83.6558 106.308 83.882 101.776C83.9047 101.074 83.9499 100.349 83.9726 99.6465C93.2953 94.8658 101.577 88.635 108.796 81.0675C108.841 81.1129 108.863 81.1355 108.909 81.1808C112.031 82.9934 115.426 84.1263 119.046 84.2169C120.834 84.2622 124.431 84.3528 125.676 82.6989C126.74 81.2941 125.789 80.3652 124.952 79.1643C124.002 77.8049 123.232 76.7853 122.87 75.086C122.825 74.8141 122.78 74.5423 122.757 74.2704C123.029 74.1344 122.938 73.8399 122.734 73.7039C122.712 73.0695 122.712 72.4351 122.576 71.8234C122.35 70.7812 122.123 70.3054 121.399 69.6256C120.381 68.6967 119.34 68.1529 118.458 67.224C118.616 66.9974 118.774 66.7935 118.91 66.5669C119.137 66.1817 118.548 65.8419 118.322 66.2271C118.231 66.3857 118.118 66.4989 118.005 66.6575C117.869 66.4536 117.711 66.295 117.575 66.0685C117.077 65.2075 117.009 64.3918 116.104 63.7801C114.453 62.6925 112.484 63.7348 111.217 64.8903C107.166 68.5381 106.442 74.5649 108.275 79.4589C101.238 86.9811 93.1369 93.1438 84.0404 97.9472C84.3572 91.2633 84.674 84.5567 84.9908 77.8729C95.3997 75.0407 102.935 66.1591 104.134 55.4422C104.202 54.8305 103.478 54.6039 103.025 54.8078C97.8209 57.3001 89.1317 62.2847 85.4207 68.4701C85.9412 57.2321 86.4843 45.9715 87.0047 34.7335C93.3406 30.4287 100.876 29.3411 107.845 26.3957C111.081 25.0136 116.263 22.9971 116.036 18.7828C115.946 17.1742 114.566 14.7952 114.204 13.0279C113.751 10.8302 113.344 9.33479 111.647 7.68082C107.958 4.12363 101.487 2.447 96.2369 1.17819C96.2143 0.906308 95.8749 0.860993 95.6939 1.04225C95.015 0.883651 94.3588 0.72505 93.7479 0.56645C91.304 -0.0452952 90.1726 -0.135924 87.7967 0.702393C83.882 2.08448 80.1032 2.58294 76.1206 3.60252C73.7899 4.07832 71.8892 5.16586 70.1468 6.79718C69.0154 7.86207 68.1556 9.15353 67.092 10.2637C65.6665 11.7365 63.63 12.6201 62.2723 14.0022C59.9416 16.3812 59.4211 19.0547 62.3628 21.4791C64.3993 23.1557 67.4315 23.269 69.8753 23.926C74.7856 25.2402 83.1353 27.9364 85.1492 33.1702C85.2397 33.3968 85.3755 33.5327 85.5565 33.6007C85.5565 33.6686 85.5565 33.7366 85.5565 33.8046C85.5113 33.8272 85.466 33.8499 85.4207 33.8952C84.9003 34.2804 85.0813 34.9601 85.4886 35.2093C84.9003 47.9427 84.2893 60.6987 83.701 73.4321C83.6784 73.6813 83.6558 73.9305 83.6558 74.1798C83.6105 75.0634 83.5652 75.947 83.52 76.8306C79.8543 74.5649 77.0258 71.257 75.4192 67.224C75.3965 67.2013 75.3739 67.1787 75.3739 67.156C75.3739 67.1333 75.3965 67.088 75.3965 67.0654C75.6681 62.4886 78.9718 59.4072 80.7594 55.4422C81.5966 53.5843 82.6149 50.6616 80.9404 48.8943C79.628 47.4895 77.8856 47.8747 76.2338 48.2146C73.4279 48.8037 69.5359 48.1693 67.1373 49.9592C66.0738 50.7522 65.5533 52.2929 64.4446 53.0859C63.2905 53.9242 61.7745 54.2414 60.5073 54.8758C58.7423 55.7594 56.5021 57.2095 56.7737 59.5432C56.9321 61.0612 58.0861 61.8316 59.3533 62.466C63.7884 64.7317 69.0833 65.9552 73.7899 67.6091C73.8805 67.6318 73.971 67.6545 74.0389 67.6545C75.8491 72.2086 78.9718 75.9243 83.2032 78.394C83.2937 78.4393 83.3616 78.462 83.4521 78.4846C83.0674 86.5732 82.6828 94.6845 82.3207 102.773C82.2076 105.401 82.0718 108.052 81.936 110.681C78.5871 100.734 76.4374 90.0398 67.9745 83.1293C67.9067 82.8348 67.6578 82.6762 67.3862 82.6309C66.7074 82.1551 66.0738 83.152 66.5263 83.7638C66.3001 90.6969 65.576 98.1964 68.8344 104.586C71.5045 109.82 76.1206 113.422 81.5966 115.325C81.6419 115.348 81.6645 115.325 81.7098 115.348C81.3703 121.647 81.0309 127.945 80.7367 134.244C75.1476 130.075 69.2417 126.019 63.8336 121.465C63.8562 121.42 63.8789 121.42 63.9015 121.375C65.3723 117.886 65.4855 114.351 65.0103 110.613C64.8519 109.366 64.9198 104.858 62.6343 105.152C60.8693 105.401 59.4438 109.14 58.9912 110.522C58.2897 112.584 58.154 114.668 58.6744 116.685C57.4073 115.393 56.1627 114.079 55.0087 112.674C54.0357 111.496 53.1306 110.273 52.2481 109.004C52.2254 108.8 52.1349 108.596 51.9313 108.46C51.886 108.437 51.8634 108.415 51.8181 108.392C46.8173 101.097 43.2421 92.8493 39.8026 84.7154C41.2508 80.0026 49.6232 72.4805 46.0706 67.4506C45.1202 66.0911 43.7399 65.8645 42.2012 66.0911C41.7487 66.1591 41.3187 66.4536 40.8662 66.5443C40.6399 66.5896 40.4136 66.6122 40.1873 66.6349C40.0742 66.5896 39.9384 66.5896 39.8479 66.6802C38.2866 66.8841 36.7252 66.9068 35.096 67.1333C34.3946 67.224 34.3493 67.0427 33.3084 67.4506C31.6792 68.085 30.1179 69.3991 28.6018 70.2827C25.8864 71.8914 23.0579 72.7297 20.1842 73.8852C18.9849 74.361 17.6724 74.8141 17.8082 76.4228C17.9666 78.258 21.1119 79.3229 22.4243 79.8894C27.6061 82.1777 33.0821 83.877 38.5129 85.4857C38.5581 85.5084 38.5807 85.5537 38.626 85.5763C41.5903 92.6001 44.6903 99.6691 48.6955 106.172C40.7757 101.097 31.9055 98.1964 22.3791 97.562C21.836 97.5167 21.4287 98.2191 21.7455 98.6722C26.9952 106.104 42.0655 117.342 51.2072 110.001C52.0897 111.27 53.0174 112.493 53.9904 113.694C61.2766 122.553 71.5724 129.101 80.6915 135.966C80.4426 141.608 80.2389 147.272 80.1032 152.914C76.3017 139.954 64.9424 132.001 52.0897 128.897C51.4108 128.738 51.0035 129.395 51.2524 129.984C56.6153 142.446 64.4446 157.037 80.0353 156.629C79.9674 161.954 79.9674 167.256 80.1032 172.557C80.6915 195.962 85.6697 218.166 93.069 239.691C89.0865 235.771 84.9908 231.965 80.8499 228.204C80.8725 227.818 80.6462 227.388 80.1484 227.32C80.0353 227.297 79.9448 227.297 79.8316 227.297C79.7185 227.184 79.6053 227.093 79.4922 226.98C79.6506 226.935 79.809 226.821 79.8995 226.617C84.4025 216.127 77.9082 206.543 74.7403 196.665C74.514 195.962 73.5637 195.962 73.3148 196.665C70.803 204.119 68.4497 213.114 71.8892 220.16C69.5585 218.098 67.2052 216.037 64.8745 213.975C64.9198 213.861 64.9198 213.726 64.8519 213.567C62.4759 207.2 61.7066 200.63 62.5212 193.9C62.5664 193.855 62.6117 193.81 62.6343 193.765C65.4628 193.855 67.9067 193.017 70.26 191.318C71.8439 190.185 74.8535 188.168 75.306 186.129C75.6681 184.43 74.8082 184.43 73.5863 183.773C71.2782 182.481 70.1695 179.785 67.6125 178.992C66.0512 178.494 64.3314 178.652 62.7475 178.244C61.0277 177.814 59.4211 176.953 57.7014 176.5C56.1627 176.115 54.7371 175.661 53.8999 177.225C51.3429 181.96 58.516 189.732 61.1183 193.447C60.3036 199.859 60.8693 206.09 62.838 212.185C59.8963 209.602 56.9773 207.042 54.0583 204.436C47.8809 198.953 41.726 193.47 36.9968 186.695C36.9968 186.356 36.7931 186.016 36.499 185.925C36.4311 185.834 36.3858 185.744 36.3179 185.631C36.2953 185.472 36.2048 185.336 36.0464 185.223C35.7296 184.747 35.4128 184.294 35.1186 183.795C34.7792 183.229 34.4624 182.64 34.1456 182.073C34.4172 182.209 34.8019 182.187 35.0055 181.96C35.1865 181.734 35.3449 181.484 35.526 181.235C35.5938 181.212 35.6617 181.167 35.707 181.122C36.5442 180.261 37.0873 179.355 37.4267 178.38C40.5041 172.988 41.4092 166.712 39.8479 160.481C39.7121 159.915 39.0333 159.824 38.626 160.164C33.7157 164.242 31.1587 170.088 31.2493 176.251C28.6697 170.45 26.7915 164.333 25.1171 158.215C25.0944 158.17 25.0718 158.125 25.0492 158.079C27.8777 153.865 30.3215 149.47 32.1996 144.734C32.9464 142.831 35.2544 139.093 33.4668 137.076C32.3354 135.807 26.4974 135.603 25.0718 135.785C23.4426 135.989 22.5148 136.532 21.1119 137.303C18.125 138.957 15.6585 139.614 12.2417 139.931C7.19566 140.407 0.158347 140.112 4.073 146.298C8.39495 153.163 15.5228 157.513 23.4652 158.782C23.5784 158.804 23.6689 158.782 23.7594 158.759C26.0222 167.029 28.6697 175.299 32.8785 182.821C33.0595 183.161 33.2858 183.478 33.4668 183.818C28.7375 181.326 23.8951 179.037 18.917 177.066C13.1695 174.8 7.10515 172.104 0.81456 172.92C0.226232 172.988 -0.203701 173.69 0.294116 174.166C9.11905 182.708 23.1258 194.875 35.9333 187.624C39.8932 193.198 44.7356 198.001 49.8721 202.624C55.9591 208.107 62.1591 213.499 68.314 218.914C61.2314 219.798 54.262 218.891 47.2246 217.849C47.1794 217.849 47.1568 217.849 47.1115 217.849C46.9757 217.668 46.7495 217.577 46.5458 217.555C43.1742 212.57 36.1369 208.673 30.2084 208.378C28.8054 208.31 28.104 208.537 27.6061 209.874C27.1988 210.961 27.2441 212.162 26.9047 213.34C26.6558 213.929 26.0448 215.629 25.9769 215.878C25.6828 217.192 25.4791 217.26 25.8864 218.619C26.0674 219.209 26.4747 219.707 26.7237 220.251C27.4704 222.041 27.2894 223.672 27.312 225.394C27.312 226.278 27.0631 227.139 27.4704 228C28.2624 229.654 30.0273 229.767 31.6566 229.586C37.5398 228.929 43.3552 224.646 46.5232 219.662C46.6363 219.616 46.7042 219.503 46.7042 219.367C46.7495 219.299 46.7721 219.254 46.8173 219.186H46.84C54.3525 220.296 61.7518 221.248 69.3322 220.183C69.4906 220.16 69.5811 220.092 69.6716 220.024C72.2739 222.313 74.8308 224.624 77.3878 226.935C71.7534 226.618 66.2774 227.478 60.9146 229.54C60.3263 229.767 60.1679 230.537 60.7336 230.877C64.9876 233.573 70.0111 234.208 74.6272 232.916C75.9622 232.735 77.2747 232.395 78.1798 231.534C78.9491 231.126 79.6959 230.65 80.3973 230.107C80.4878 230.039 80.5784 229.948 80.6236 229.835C85.0587 233.868 89.4259 237.969 93.7026 242.183C93.7931 242.274 93.9063 242.342 94.0194 242.364C96.1691 248.414 98.4997 254.418 100.989 260.377C92.6391 253.466 84.5609 246.012 73.2469 245.355C72.7038 245.332 72.2965 246.012 72.6133 246.465C75.8038 251.133 79.1302 256.049 83.8594 259.267C89.2223 262.914 96.1464 263.866 102.505 264.047C104.089 267.763 105.741 271.479 107.415 275.172C101.306 272.453 94.7887 271.094 88.0003 271.162C87.3215 271.162 87.0726 271.955 87.4799 272.408C92.5259 278.367 101.736 279.069 109.158 278.956C111.42 283.804 113.728 288.653 116.104 293.479C116.512 294.34 117.779 293.592 117.372 292.731C115.131 288.154 112.914 283.578 110.742 278.978C110.9 279.114 111.104 279.182 111.375 279.092C119.046 276.327 125.585 269.53 123.187 260.853C123.029 260.263 122.372 260.195 121.965 260.535C116.58 264.795 111.239 269.508 109.972 276.418C109.768 276.327 109.587 276.214 109.384 276.101C107.483 272 105.605 267.899 103.817 263.753C104.134 263.503 104.247 263.05 103.863 262.733C103.614 262.552 103.387 262.348 103.138 262.167C102.641 260.988 102.143 259.81 101.645 258.632C101.69 258.609 101.713 258.609 101.758 258.564C108.139 253.058 114.566 247.507 120.426 241.435C129.319 241.82 137.601 238.875 144.208 232.894C144.729 232.418 144.254 231.715 143.688 231.647C138.099 230.922 132.125 231.126 127.35 233.596C128.663 231.942 129.953 230.265 131.175 228.521C132.261 226.935 133.302 225.303 134.275 223.672C134.32 223.717 134.365 223.763 134.433 223.785C134.32 224.193 134.546 224.76 135.089 224.828C141.131 225.53 146.878 223.649 151.427 219.616C151.947 219.163 151.495 218.416 150.906 218.37C145.973 217.917 140.814 217.713 136.696 220.455C137.216 219.322 137.578 218.166 137.782 217.033C138.71 215.13 139.57 213.227 140.384 211.279C145.611 211.596 150.68 210.236 154.979 207.178C156.812 205.863 162.175 201.944 160.591 199.157C160.478 198.953 160.206 198.772 159.957 198.794C153.418 199.293 147.444 201.717 142.557 205.796C144.435 200.698 146.064 195.509 147.557 190.321C147.648 190.343 147.761 190.343 147.874 190.321C151.54 189.46 155.047 188.078 158.215 186.016C159.55 185.155 161.881 183.954 161.519 182.005C161.111 179.785 158.102 179.49 156.405 178.879C151.947 177.27 147.761 174.71 143.62 172.421C143.167 172.172 142.715 172.421 142.534 172.852C140.248 178.924 142.986 184.656 146.154 189.822C144.367 195.962 142.443 202.08 140.09 208.039C139.66 208.492 139.208 208.922 138.8 209.398C138.416 209.828 138.664 210.372 139.049 210.599C138.687 211.46 138.325 212.343 137.94 213.204C137.375 206.135 132.238 199.225 128.391 193.606C128.029 193.062 127.26 193.175 127.056 193.787C123.526 203.96 127.667 212.57 133.573 220.84C133.686 220.999 133.822 221.066 133.98 221.112C132.713 223.378 131.401 225.598 129.907 227.75C122.056 239.147 111.466 248.278 101.057 257.227C98.8844 252.016 96.8253 246.782 94.9245 241.458V241.435C95.2187 241.367 95.4676 241.141 95.445 240.756C95.445 240.529 95.4676 240.28 95.4676 240.053C100.695 235.341 107.302 230.718 111.42 225.009C115.312 219.616 115.629 211.936 116.331 205.546C116.399 204.912 115.493 204.595 115.086 205.025C106.827 213.907 94.9245 226.096 94.042 238.988C93.4084 237.153 92.7522 235.318 92.1639 233.46C91.8245 232.44 91.5303 231.398 91.2135 230.379C91.3493 230.265 91.4398 230.084 91.4172 229.857C91.1909 215.878 92.4354 201.536 99.337 189.074C101.17 185.767 103.116 182.572 105.107 179.4C105.22 179.581 105.401 179.717 105.695 179.694C110.312 179.423 116.014 177.361 119.725 173.804C120.788 173.078 121.626 172.15 122.033 170.971C122.78 169.703 123.3 168.32 123.504 166.825C123.572 166.349 122.983 166.009 122.576 166.123C118.412 167.278 113.072 169.476 109.316 172.761C112.733 167.392 116.059 161.954 118.955 156.199C119.001 156.222 119.046 156.244 119.091 156.244C129.953 157.83 138.483 151.645 146.335 144.984C146.697 145.006 147.037 144.984 147.399 145.006C148.281 145.052 148.327 143.828 147.58 143.579C147.535 143.058 146.833 142.627 146.313 143.08C146.132 143.216 145.973 143.375 145.792 143.511C136.605 143.307 127.961 146.275 120.901 152.053C122.463 148.722 123.956 145.369 125.382 141.97C131.356 139.093 136.266 135.128 140.678 130.596C140.701 130.709 140.769 130.8 140.859 130.913C144.842 134.969 150.182 135.785 155.658 135.966C159.754 136.102 168.941 136.532 170.955 131.82C171.271 131.049 170.004 130.302 169.62 131.163ZM111.556 118.067C112.71 118.452 113.593 116.775 113.163 119.766C112.801 122.349 109.18 125.045 107.189 126.291C107.144 126.042 106.985 125.906 106.827 125.838C108.298 123.278 109.406 120.559 110.108 117.682C110.56 117.772 111.036 117.908 111.556 118.067ZM109.406 117.614C108.773 120.197 107.8 122.621 106.533 124.955C105.922 122.847 105.56 120.695 105.492 118.475C105.492 118.429 105.469 118.429 105.447 118.384C105.695 118.248 105.967 118.135 106.216 118.044C107.37 117.591 108.388 117.5 109.406 117.614ZM103.568 119.086C104.021 119.018 104.406 118.86 104.813 118.679C104.881 120.922 105.266 123.097 105.899 125.226C105.288 124.479 104.655 123.754 104.044 123.006C103.206 121.986 101.374 120.378 101.396 118.905H101.419C102.007 118.814 102.912 119.177 103.568 119.086ZM100.763 119.064C100.83 120.151 101.577 121.012 102.279 121.896C103.342 123.233 104.428 124.547 105.537 125.838C104.27 125.43 102.935 125.023 101.758 124.456C99.3144 123.233 96.599 120.106 100.763 119.064ZM90.5121 133.383C93.0464 135.445 95.6034 137.507 98.1377 139.568C101.328 142.151 106.216 144.916 106.578 149.424C106.623 149.923 107.053 150.149 107.46 150.127C107.506 151.01 107.551 151.871 107.619 152.732C98.6808 151.939 92.3675 141.857 90.5121 133.383ZM118.367 82.5856C115.244 82.3817 112.484 81.4074 109.768 79.8667V79.8441C109.836 79.7987 109.904 79.7308 109.927 79.6401C109.95 79.4815 110.017 79.3682 110.063 79.2096C110.176 79.1643 110.266 79.1417 110.379 79.0964C110.244 79.3003 110.402 79.6855 110.742 79.6401C112.891 79.3229 115.199 79.912 117.372 80.0706C119.385 80.2292 121.399 80.2519 123.413 80.1839C123.526 80.1839 123.594 80.1386 123.639 80.0706C124.703 83.084 120.336 82.7215 118.367 82.5856ZM123.368 79.5042C121.06 79.5722 118.752 79.5268 116.444 79.3229C114.52 79.1417 112.665 78.7338 110.742 78.9831C114.362 77.7143 117.915 76.3095 121.422 74.7235C121.49 75.6071 121.535 76.4908 121.897 77.3971C122.214 78.2127 122.938 78.8018 123.368 79.5042ZM117.349 68.7873C119.001 70.5546 120.404 69.5577 121.173 72.8656C121.264 73.2508 121.309 73.636 121.354 74.0211C117.734 75.6525 114.068 77.1252 110.334 78.4166C111.669 74.4063 114.747 71.8687 117.304 68.6967C117.304 68.7194 117.326 68.742 117.349 68.7873ZM108.954 71.7328C109.248 70.3733 110.606 66.2271 112.235 65.7966C113.593 66.1138 114.95 66.4536 116.308 66.7708C116.421 67.1107 116.557 67.4279 116.693 67.7451C116.783 67.8357 116.828 67.949 116.896 68.0623C115.448 69.8296 113.751 71.257 112.258 73.0922C110.923 74.7235 110.063 76.5814 109.52 78.5752C108.705 76.3775 108.456 74.0665 108.954 71.7328ZM92.4354 13.2092C93.9515 9.71996 95.3318 6.32138 95.988 2.6056C99.5859 3.28532 103.116 4.69006 106.42 6.23075C104.111 11.8271 99.3144 15.339 95.2187 19.6438C92.0281 22.9744 89.6296 26.8715 87.3441 30.8591C88.2266 24.6964 89.9237 18.9641 92.4354 13.2092ZM97.7078 28.095C93.9515 29.2731 90.4215 30.6779 87.1405 32.7397C91.304 29.2958 95.5355 25.8519 100.287 23.269C104.474 21.0033 108.999 19.5305 113.117 17.1515C113.253 17.3101 113.366 17.4687 113.366 17.6273C113.344 24.9909 103.206 26.373 97.7078 28.095ZM112.574 16.2679C112.597 16.3812 112.642 16.4945 112.71 16.6078C108.071 19.2813 102.935 20.8673 98.3413 23.6088C94.653 25.8066 91.304 28.4801 87.9777 31.199C91.123 25.8519 94.5851 21.1165 99.1786 16.7437C102.414 13.6397 105.356 10.6263 107.053 6.5253C111.081 8.54179 112.122 11.8044 112.574 16.2679ZM95.3544 2.46966C94.3588 8.1113 91.4851 13.0506 89.5617 18.443C88.7244 20.7767 88.0682 23.133 87.5478 25.5347C87.5251 23.6768 87.2536 21.8189 86.5295 19.7798C84.6288 14.3873 82.5696 9.51605 81.7324 3.82909C83.5652 3.48923 85.3529 3.19469 86.9595 2.74154C89.7201 1.9712 92.5486 1.99385 95.3544 2.46966ZM81.0535 3.96503C81.6645 8.22459 82.728 12.2576 84.312 16.2452C86.0317 20.5728 86.8916 24.0846 86.5974 28.1629C85.9412 25.9652 84.5383 24.0393 82.6828 22.2947C78.0214 17.8539 73.541 14.5006 70.5089 8.5871C70.7352 8.33787 70.9614 8.08865 71.2103 7.83942C73.6542 5.48307 77.3652 4.64475 81.0535 3.96503ZM79.6732 26.2144C77.7498 25.1948 75.7586 24.3112 73.7221 23.5862C71.7534 22.8838 67.8161 22.8385 66.3227 21.5923C65.0103 20.4821 64.1957 15.4976 65.1913 14.0022C65.0103 14.2741 67.0242 12.4388 67.2278 12.2802C68.2234 11.2833 69.0833 10.1731 70.0111 9.10822C71.7082 12.3482 73.7447 15.271 76.4148 17.7859C80.3068 21.4791 85.9864 24.6284 86.3259 30.3607C86.258 30.7685 86.1448 31.2217 86.0543 31.6521C84.6514 29.0692 82.366 27.6418 79.6732 26.2144ZM73.9936 66.1591C73.9936 66.1364 73.971 66.1138 73.971 66.1138C74.0162 66.0911 74.0388 66.0685 74.0615 66.0458C74.0615 66.0911 74.0615 66.1364 74.0389 66.1817C74.0162 66.1591 74.0162 66.1591 73.9936 66.1591ZM79.8769 53.7429C79.809 54.7852 78.7002 56.2352 78.1572 57.1642C76.709 59.6338 75.1703 61.8089 74.4009 64.3918C74.1067 61.5597 74.152 58.2744 74.8761 55.6008C75.4418 53.4937 76.3243 51.7491 76.5958 49.5514C78.4061 48.8716 80.171 48.6224 79.8769 53.7429ZM74.152 50.299C74.6272 50.3217 75.2381 50.0951 75.8717 49.8459C75.4644 52.6101 74.1746 55.0344 73.8578 57.8439C73.5863 60.1776 73.541 62.5339 73.7673 64.8676C71.9797 60.3362 68.495 56.5298 67.8161 51.6132C69.6264 50.2764 72.0476 50.1858 74.152 50.299ZM65.1913 54.3773C66.119 53.7429 66.549 52.8593 67.2504 52.1116C68.1329 57.0735 71.6855 60.9253 73.36 65.6153C69.287 62.6472 65.3044 59.6112 62.0686 55.7368C63.0869 55.261 64.2635 54.9891 65.1913 54.3773ZM61.1861 56.2126C61.2766 56.1446 61.3672 56.1219 61.4577 56.0766C64.4898 59.7244 68.2008 62.6472 72.0023 65.4567C69.9206 64.7317 67.8614 63.984 65.7796 63.259C63.3132 62.3753 55.6196 60.1549 61.1861 56.2126ZM45.256 70.1694C46.4779 71.8007 41.5903 77.6236 40.6625 79.0964C39.8479 80.3652 39.2143 81.566 38.7618 82.9028C38.8296 78.1674 39.2822 73.4774 40.0742 68.81C41.726 68.7194 44.2604 68.8326 45.256 70.1694ZM35.1639 68.878C36.0238 68.8326 36.7931 69.3764 37.7888 69.2631C38.2639 69.2178 38.7391 68.8553 39.2143 68.8326C39.2596 68.8326 39.3275 68.8326 39.3727 68.8326C38.626 73.3414 38.1734 77.8729 38.0829 82.4723C35.4581 78.5752 32.969 74.6102 31.566 70.0788C32.7427 69.4217 33.942 68.9459 35.1639 68.878ZM30.9777 70.4186C32.3807 74.8821 34.8245 78.8471 37.4493 82.6989C35.3223 81.498 33.1953 80.2745 31.0682 79.0737C29.7105 78.3034 24.4835 75.7431 24.6192 73.8399C25.3886 73.5907 26.1353 73.3414 26.7463 73.0242C28.0813 72.3445 29.4843 71.2796 30.9777 70.4186ZM20.9535 76.3548C21.1798 75.1767 22.4922 74.5876 23.9178 74.0665C24.1441 75.6071 26.5653 77.1252 27.6061 77.8276C30.9551 80.0706 34.6208 81.9285 38.1282 83.8997C34.0551 82.7442 20.4104 79.1417 20.9535 76.3548ZM32.6296 106.965C30.7062 105.855 28.8733 104.54 27.2441 103.045C26.4069 102.275 25.6149 101.436 24.8682 100.575C23.601 99.08 23.9404 98.6949 25.8864 99.4199C29.3711 98.7855 35.1413 101.278 38.3771 102.547C42.5859 104.178 46.41 106.398 50.0531 109.004C45.3239 112.652 37.1325 109.548 32.6296 106.965ZM60.2358 117.025C60.3489 117.183 60.4847 117.342 60.6204 117.455C60.5978 117.568 60.5752 117.659 60.5525 117.772C60.462 117.523 60.3263 117.274 60.2358 117.025ZM62.9737 119.245H62.9511C63.019 119.2 63.0643 119.132 63.1321 119.064C63.1095 119.132 63.0869 119.2 63.0643 119.268C63.019 119.268 62.9964 119.245 62.9737 119.245ZM63.3132 112.221C63.1774 112.221 63.0416 112.244 62.9059 112.289C62.9285 111.451 62.8832 110.613 62.8606 109.774C62.8832 109.706 62.9059 109.638 62.9285 109.57C62.9964 109.457 63.0869 109.344 63.1548 109.208C63.2679 109.797 63.3358 110.386 63.3132 110.998C63.3358 111.292 63.3358 111.745 63.3132 112.221ZM62.4759 119.313C62.4533 119.313 62.4533 119.313 62.4307 119.313C62.4307 119.313 62.4307 119.29 62.4759 119.313C62.4533 119.29 62.4533 119.29 62.4759 119.313ZM62.2949 119.313C62.3175 119.313 62.3402 119.313 62.3628 119.313C62.3628 119.336 62.3175 119.336 62.2949 119.313C62.2949 119.336 62.2949 119.336 62.2949 119.313ZM73.2695 186.628C73.1337 187.171 71.7308 188.146 71.3235 188.508C68.8797 190.683 66.2548 192.269 63.019 192.314C63.0416 192.292 63.0643 192.314 63.0869 192.292C65.8701 189.528 68.6308 186.786 71.414 184.022C71.7082 184.316 72.025 184.611 72.3417 184.906C72.8848 185.472 73.5863 185.359 73.2695 186.628ZM70.9162 183.546C68.2687 186.174 65.5986 188.825 62.9511 191.453C63.5847 187.67 64.7614 184.067 66.4811 180.623C68.1782 181.303 69.5811 182.323 70.9162 183.546ZM65.0329 180.148C65.3271 180.216 65.5533 180.329 65.8475 180.419C64.1504 183.841 62.9737 187.421 62.3175 191.182C61.3898 189.324 60.4847 187.443 60.1679 185.359C59.8285 183.252 60.1226 181.076 60.281 178.969C60.3263 178.992 60.3715 179.015 60.4168 179.015C61.9555 179.581 63.4489 179.808 65.0329 180.148ZM56.6153 177.769C57.0452 177.882 57.4751 177.995 57.9051 178.108C58.4708 178.176 59.0591 178.448 59.6248 178.697C59.4664 181.076 59.1044 183.569 59.5569 185.925C59.9868 188.078 60.9825 190.049 61.9781 191.997C62.0234 192.088 62.0913 192.133 62.1591 192.133C62.1591 192.156 62.1365 192.201 62.1365 192.224C62.0913 192.201 62.0234 192.156 61.9555 192.156C59.8285 189.165 57.1357 185.948 55.9364 182.572C54.8955 181.031 55.1218 179.423 56.6153 177.769ZM26.9499 137.325C27.6288 137.325 31.1587 137.439 31.7018 138.028C33.7157 140.135 29.6653 146.909 28.7375 148.767C27.2667 151.781 25.5244 154.613 23.6689 157.377C23.601 157.377 23.5557 157.354 23.4878 157.332C23.4426 157.286 23.42 157.218 23.3747 157.173C23.5105 157.173 23.6462 157.128 23.6915 156.947C25.4565 150.489 26.3842 143.987 26.4974 137.303C26.6558 137.325 26.7915 137.325 26.9499 137.325ZM20.5688 139.433C22.8316 138.186 22.6959 137.461 25.8412 137.348C25.7054 143.919 24.8003 150.376 23.0805 156.72C19.709 152.053 17.9666 146.615 16.3826 141.109C16.5863 141.087 16.7673 141.064 16.971 141.019C18.3739 140.701 19.3017 140.135 20.5688 139.433ZM15.6812 141.222C17.3104 146.841 19.098 152.392 22.5375 157.15C21.7002 156.992 20.8856 156.788 20.071 156.539C17.6951 154.998 15.7717 151.985 14.3009 150.036C12.2191 147.317 10.3183 144.485 8.50809 141.585C10.7709 141.154 13.3731 141.472 15.6812 141.222ZM8.05553 149.243C7.03727 148.133 5.22703 146.388 4.81972 144.916C4.14088 142.514 5.2044 142.944 6.69785 142.197C7.0599 142.015 7.4672 141.857 7.85188 141.744C7.85188 141.789 7.85188 141.834 7.8745 141.88C10.3183 145.822 12.9658 149.606 15.9075 153.185C16.6768 154.137 17.4235 155.111 18.2155 155.95C14.3687 154.545 10.8614 152.347 8.05553 149.243ZM39.0559 167.709C38.988 167.437 38.8975 167.165 38.807 166.893C38.8975 166.463 38.9654 166.055 39.0559 165.624C39.0786 166.327 39.0786 167.029 39.0559 167.709ZM33.9872 174.619C34.0551 172.943 34.123 171.311 34.4624 169.771C34.2588 172.671 34.0325 175.571 33.8289 178.471C33.8289 178.494 33.8515 178.516 33.8515 178.562C33.8289 178.539 33.8288 178.539 33.8062 178.516C33.5347 178.018 33.9646 175.186 33.9872 174.619ZM36.7705 167.641C36.8384 167.346 36.8836 167.052 36.9515 166.78C36.8836 167.074 36.8384 167.369 36.7705 167.641ZM35.707 172.943C35.7975 172.92 35.888 172.875 35.9559 172.829C35.8427 173.192 35.7522 173.577 35.6391 173.939C35.6617 173.6 35.6843 173.26 35.707 172.943ZM37.5625 165.624C37.4267 165.67 37.3362 165.715 37.2457 165.828C37.3814 165.443 37.5398 165.058 37.7435 164.673C37.6756 164.967 37.6304 165.284 37.5625 165.624ZM2.46641 174.325C7.98764 174.166 13.3957 176.522 18.4418 178.539C24.1214 180.782 29.5974 183.433 34.9376 186.356C34.9603 186.401 34.9829 186.424 35.0281 186.469C23.5105 192.813 10.7935 182.277 2.46641 174.325ZM31.5434 210.327C36.7479 211.097 42.3596 214.111 45.3013 218.529C45.2107 218.574 45.1429 218.597 45.0524 218.642C44.9618 218.552 44.8261 218.484 44.6677 218.574C44.464 218.71 44.2604 218.823 44.0341 218.959C38.7618 218.257 33.3763 216.082 28.6244 213.997C28.6923 213.748 28.7602 213.476 28.8054 213.227C29.1901 210.848 28.6244 209.896 31.5434 210.327ZM27.6061 219.141C27.2441 217.532 27.9456 216.105 28.4434 214.654C32.9464 216.626 37.9245 218.619 42.8801 219.458C38.2866 220.908 33.4215 220.931 28.5791 220.84C28.5113 220.84 28.466 220.885 28.4208 220.908C28.0813 220.364 27.7419 219.82 27.6061 219.141ZM28.7375 221.52C33.0369 221.588 37.3136 221.565 41.4319 220.568C37.6982 222.698 33.761 224.442 29.5748 225.485C29.3485 225.281 29.1222 225.077 28.9186 224.873C29.0091 225.167 29.1901 223.242 29.1901 223.106C29.1675 222.471 28.9638 221.973 28.7375 221.52ZM34.6887 227.32C33.9646 227.637 33.1953 227.909 32.4259 228.09C31.6792 227.41 30.9098 226.708 30.1631 226.028C35.0734 224.737 39.6443 222.517 43.9662 219.843C44.102 219.798 44.2377 219.73 44.3509 219.684C44.4867 219.707 44.645 219.707 44.7808 219.73C42.2917 223.242 38.7391 225.734 34.6887 227.32ZM77.3199 224.601C69.0833 218.166 71.1877 207.857 73.971 199.157C77.1615 207.789 82.5244 216.603 78.5418 225.87C78.4966 225.96 78.4966 226.051 78.4739 226.142C78.1571 225.847 77.8404 225.553 77.5009 225.258C77.6141 225.054 77.5914 224.805 77.3199 224.601ZM72.1834 231.398C72.2286 231.625 72.387 231.783 72.6585 231.829C72.206 231.829 71.776 231.829 71.414 231.806C71.1651 231.806 70.7125 231.806 70.2826 231.761C70.8936 231.67 71.5498 231.579 72.1834 231.398ZM68.1782 229.359C67.6351 229.382 67.092 229.427 66.549 229.472C67.4541 229.268 68.3818 229.087 69.287 228.951C68.9023 229.064 68.5402 229.2 68.1782 229.359ZM73.5863 231.806C73.6315 231.806 73.6768 231.783 73.7447 231.783C73.7221 231.783 73.7221 231.783 73.6994 231.806C73.6542 231.783 73.6089 231.783 73.5863 231.806ZM77.2747 228.566C76.2564 228.657 75.2608 228.747 74.2425 228.861C73.5184 228.747 72.7264 228.657 71.9344 228.657C73.6994 228.498 75.487 228.453 77.2747 228.566ZM89.7201 272.816C96.2369 272.997 102.437 274.492 108.275 277.347C108.32 277.438 108.366 277.551 108.411 277.642C102.075 277.71 94.5172 277.098 89.7201 272.816ZM121.942 262.507C123.232 269.576 117.915 275.013 111.669 277.528C111.624 277.483 111.579 277.438 111.533 277.415C111.443 277.37 111.352 277.324 111.262 277.279C112.212 270.844 117.055 266.404 121.942 262.507ZM79.7637 253.851C79.1754 253.194 74.3783 248.255 74.7629 247.281C76.4374 243.044 95.3997 258.02 101.215 262.688C95.4676 262.439 89.3354 261.442 84.5609 258.156C82.7506 256.933 81.2119 255.437 79.7637 253.851ZM148.938 219.798C148.553 220.092 148.146 220.364 147.738 220.613C147.738 220.591 147.761 220.545 147.761 220.523C148.123 220.296 148.462 220.047 148.802 219.798C148.847 219.798 148.892 219.798 148.938 219.798ZM139.208 223.242C141.674 223.128 144.005 222.539 146.154 221.429C146.313 221.384 146.471 221.338 146.607 221.293C143.756 222.856 140.588 223.649 137.262 223.604C137.918 223.491 138.574 223.355 139.208 223.242ZM135.972 221.066C135.791 221.202 135.61 221.361 135.451 221.52C135.542 221.361 135.632 221.18 135.723 221.021C135.791 221.044 135.881 221.066 135.972 221.066ZM148.304 203.643C149.481 203.031 157.717 199.225 158.622 200.471C160.048 202.465 152.784 206.974 151.585 207.608C148.259 209.353 144.661 210.032 140.927 209.896C141.063 209.557 141.199 209.239 141.312 208.9C143.371 206.815 145.679 205.025 148.304 203.643ZM146.878 176.092C148.508 176.998 150.137 177.882 151.811 178.675C150.024 181.416 148.598 184.316 147.512 187.398C146.765 183.659 146.946 179.876 146.878 176.092ZM158.419 184.181C158.057 184.928 155.952 185.767 155.273 186.129C152.898 187.398 150.408 188.281 147.829 188.916C147.829 188.893 147.806 188.871 147.806 188.848C150.906 186.288 153.803 183.546 156.563 180.623C158.034 181.076 159.595 181.756 158.419 184.181ZM155.839 180.374C153.395 182.934 150.838 185.359 148.146 187.647C149.232 184.566 150.657 181.688 152.445 178.969C153.441 179.423 154.436 179.876 155.432 180.261C155.545 180.283 155.703 180.329 155.839 180.374ZM143.643 174.279C144.48 174.755 145.34 175.231 146.2 175.707C146.29 179.944 146.041 184.203 147.037 188.349C146.969 188.349 146.924 188.372 146.878 188.395C144.254 184.045 142.172 179.332 143.643 174.279ZM127.939 195.804C132.057 201.717 137.443 209.307 136.334 216.58C135.768 217.736 135.202 218.869 134.591 220.002C129.319 212.57 125.45 204.844 127.939 195.804ZM141.787 233.052C136.221 237.606 129.613 239.985 122.463 240.121C126.649 233.415 134.456 232.372 141.787 233.052ZM107.619 227.093C103.795 230.945 99.6085 234.502 95.5581 238.105C96.9384 226.889 107.031 215.923 114.588 207.812C113.796 214.881 112.846 221.792 107.619 227.093ZM86.9595 164.287C86.9821 164.355 87.0047 164.423 87.0726 164.469C86.8689 164.559 86.6427 164.65 86.439 164.718C86.5974 164.582 86.7784 164.446 86.9595 164.287ZM83.882 166.757C84.0631 166.621 84.2215 166.485 84.4025 166.349C84.6514 166.372 84.9003 166.395 85.1492 166.395C84.1988 166.78 83.2258 167.12 82.2755 167.414C82.4112 167.256 82.5696 167.006 82.7733 166.689C83.0222 166.961 83.5652 167.029 83.882 166.757ZM88.1814 164.582C88.7244 164.333 89.2223 164.038 89.6974 163.698C89.2675 164.084 88.7923 164.423 88.2945 164.741C88.2719 164.673 88.2266 164.627 88.1814 164.582ZM81.4156 167.573C81.4382 167.595 81.4608 167.618 81.5061 167.618C81.4835 167.618 81.4382 167.641 81.4156 167.641C81.4156 167.618 81.4156 167.595 81.4156 167.573ZM87.8646 159.915C87.7514 160.005 87.6383 160.096 87.5025 160.187C87.3668 160.277 87.2084 160.345 87.0726 160.436C87.0726 160.436 87.0726 160.436 87.05 160.436C86.0091 160.98 85.104 161.659 84.2667 162.384C83.4069 162.792 82.909 163.494 82.5017 164.265C82.4112 164.378 82.3207 164.469 82.2302 164.582C83.2485 162.384 85.4434 161.002 87.8646 159.915ZM93.8384 107.123C91.4851 112.878 88.9733 118.361 82.9995 121.058C83.1353 120.944 83.2485 120.763 83.2485 120.536C83.6558 114.102 88.6113 110.069 93.8384 107.123ZM93.1822 62.6246C96.0333 60.2456 99.1333 58.297 102.437 56.6204C100.876 65.9325 94.0873 73.5227 85.0361 76.1736C85.0361 76.083 85.0361 75.9697 85.0587 75.879C85.1718 75.7204 85.2397 75.5165 85.1945 75.2899C85.1492 75.0407 85.1266 74.7915 85.1266 74.5423C85.1492 74.0438 85.1718 73.5453 85.1945 73.0469C85.8054 68.7647 90.15 65.1848 93.1822 62.6246ZM67.9293 85.0325C75.917 92.1469 77.6593 103.249 81.1214 112.946C81.2346 113.263 81.4835 113.422 81.755 113.445C81.755 113.581 81.7324 113.717 81.7324 113.83C68.6307 109.117 67.6578 97.0409 67.9293 85.0325ZM53.0853 130.732C65.4402 134.108 76.098 142.129 79.0849 155.134C65.2592 154.975 58.0861 142.106 53.0853 130.732ZM119.793 171.606C119.906 171.492 119.996 171.379 120.11 171.266C119.883 171.56 119.634 171.855 119.385 172.127C119.521 171.968 119.657 171.787 119.793 171.606ZM109.927 177.293C110.764 177.202 111.579 176.93 112.393 176.522C112.416 176.59 112.439 176.636 112.484 176.681C111.33 177.157 110.176 177.519 109.044 177.791C109.339 177.633 109.633 177.474 109.927 177.293ZM108.773 175.525C108.705 175.593 108.614 175.661 108.547 175.729C108.637 175.639 108.705 175.548 108.796 175.458C108.796 175.48 108.795 175.503 108.773 175.525ZM107.031 177.95C107.053 178.04 107.076 178.108 107.144 178.176C107.053 178.199 106.963 178.199 106.872 178.222C106.917 178.131 106.985 178.04 107.031 177.95ZM158.351 73.0242C158.984 74.1571 157.152 78.4166 156.314 78.9831C155.296 79.6855 153.508 79.8894 152.287 80.2292C150.001 80.8636 147.67 81.3847 145.34 81.8379C145.317 81.8152 145.317 81.7699 145.295 81.7473C148.553 78.0541 152.468 74.9954 155.658 71.2343C155.771 71.3702 155.862 71.4835 156.02 71.6195C156.518 72.0953 158.147 72.6617 158.351 73.0242ZM151.653 67.5412C154.142 68.4701 154.142 69.3311 155.228 70.7358C152.015 74.5423 148.055 77.601 144.774 81.3394C145.204 79.0284 145.227 76.6947 145.86 74.4063C146.607 71.7101 147.874 69.2405 149.3 66.8841C149.911 66.9521 150.522 67.1107 151.653 67.5412ZM144.276 65.4341C145.34 66.2044 146.154 66.5216 147.489 66.6575C147.919 66.7029 148.259 66.7255 148.576 66.7708C147.354 68.8326 146.268 70.9624 145.521 73.2508C144.684 75.8564 144.661 78.4846 144.14 81.1129C141.244 75.7204 141.855 70.26 143.213 64.3012C143.552 64.709 143.869 65.1395 144.276 65.4341ZM138.597 66.5669C138.302 65.2528 138.8 64.3692 140.113 63.916C140.927 62.5339 141.674 62.4433 142.398 63.5988C142.489 63.6441 142.557 63.7121 142.647 63.7574C141.221 69.8749 140.543 75.5618 143.371 81.0675C139.389 77.8276 137.669 71.5062 138.597 66.5669ZM127.464 97.426C127.35 99.7824 127.396 102.093 127.577 104.404C127.441 104.382 127.305 104.382 127.169 104.427C127.147 102.093 127.283 99.7371 127.464 97.426ZM130.677 112.47C130.722 112.584 130.745 112.72 130.79 112.833C130.745 112.901 130.699 112.969 130.654 113.014C130.654 112.833 130.677 112.652 130.677 112.47ZM130.699 104.518C130.699 104.472 130.699 104.427 130.699 104.382C131.129 105.605 131.469 106.874 131.627 108.098C131.333 106.897 131.039 105.696 130.699 104.518ZM129.478 100.893C129.387 100.666 129.319 100.417 129.229 100.168C129.161 99.9637 129.025 99.8504 128.889 99.7597C128.889 99.5105 128.889 99.2613 128.912 99.0121C129.206 99.4879 129.5 99.9637 129.749 100.462C129.636 100.553 129.523 100.689 129.478 100.893ZM131.672 118.996C131.786 118.973 131.921 118.95 132.034 118.882C131.989 119.018 131.944 119.132 131.899 119.268C131.808 119.154 131.74 119.064 131.672 118.996ZM144.027 145.074C137.058 150.897 129.41 156.199 119.838 154.998C126.581 148.677 134.953 145.278 144.027 145.074ZM169.099 109.978C168.828 111.043 164.257 111.995 163.057 112.244C160.749 112.72 158.419 112.72 156.065 112.425C156.088 112.402 156.111 112.357 156.133 112.335C156.246 112.199 156.292 112.063 156.292 111.927C160.184 110.25 164.89 111.043 168.149 108.075C168.805 108.664 169.28 109.276 169.099 109.978ZM166.271 106.353C166.587 106.761 167.131 107.191 167.651 107.622C164.619 110.318 160.229 109.797 156.563 111.134C159.052 108.528 161.632 105.968 163.804 103.113C163.963 103.226 164.144 103.317 164.302 103.476C165.343 104.427 165.433 105.311 166.271 106.353ZM163.261 102.705C161.089 105.583 158.487 108.143 155.998 110.748C155.839 107.055 157.514 103.861 159.46 100.779C159.641 100.938 159.799 101.074 159.957 101.187C161.044 101.935 162.198 102.161 163.261 102.705ZM155.545 99.4425C156.79 98.1964 157.898 99.3066 158.962 100.326C156.88 103.634 155.025 107.123 155.341 111.134C155.251 111.179 155.183 111.224 155.115 111.315C155.025 111.406 154.957 111.519 154.866 111.609C153.305 108.551 153.373 101.595 155.545 99.4425Z" fill="#333333"/>
</g>
<defs>
<clipPath id="clip0_111_6">
<rect width="171" height="294" fill="white"/>
</clipPath>
</defs>
</svg>
